	<svg
			width="17"
			height="17"
			viewBox="0 0 18 17"
			fill="none"
			xmlns="http://www.w3.org/2000/svg"
		>
			<path
				d="M12.4917 0.166748H5.50841C2.47508 0.166748 0.666748 1.97508 0.666748 5.00841V11.9834C0.666748 15.0251 2.47508 16.8334 5.50841 16.8334H12.4834C15.5167 16.8334 17.3251 15.0251 17.3251 11.9917V5.00841C17.3334 1.97508 15.5251 0.166748 12.4917 0.166748ZM12.9834 6.58342L8.25841 11.3084C8.14175 11.4251 7.98341 11.4917 7.81675 11.4917C7.65008 11.4917 7.49175 11.4251 7.37508 11.3084L5.01675 8.95008C4.77508 8.70842 4.77508 8.30841 5.01675 8.06675C5.25841 7.82508 5.65841 7.82508 5.90008 8.06675L7.81675 9.98341L12.1001 5.70008C12.3417 5.45842 12.7417 5.45842 12.9834 5.70008C13.2251 5.94175 13.2251 6.33342 12.9834 6.58342Z"
				fill="currentColor"
			/>
		</svg>
