<svg width="10" height="10" viewBox="0 0 10 10" fill="none" xmlns="http://www.w3.org/2000/svg" stroke="currentColor">
	<path d="M8.33317 3.43766V7.50016C8.33317 8.75016 7.58734 9.16683 6.6665 9.16683H3.33317C2.41234 9.16683 1.6665 8.75016 1.6665 7.50016V3.43766C1.6665 2.0835 2.41234 1.771 3.33317 1.771C3.33317 2.02933 3.43733 2.26266 3.60816 2.43349C3.77899 2.60433 4.01234 2.7085 4.27067 2.7085H5.729C6.24567 2.7085 6.6665 2.28766 6.6665 1.771C7.58734 1.771 8.33317 2.0835 8.33317 3.43766Z" strokeLinecap="round" strokeLinejoin="round"/>
	<path d="M6.66683 1.771C6.66683 2.28766 6.246 2.7085 5.72933 2.7085H4.271C4.01266 2.7085 3.77932 2.60433 3.60848 2.43349C3.43765 2.26266 3.3335 2.02933 3.3335 1.771C3.3335 1.25433 3.75433 0.833496 4.271 0.833496H5.72933C5.98766 0.833496 6.22101 0.937664 6.39184 1.1085C6.56267 1.27933 6.66683 1.51266 6.66683 1.771Z" strokeLinecap="round" strokeLinejoin="round"/>
	<path d="M3.3335 5.4165H5.00016" strokeLinecap="round" strokeLinejoin="round"/>
	<path d="M3.3335 7.0835H6.66683" strokeLinecap="round" strokeLinejoin="round"/>
</svg>
