<svg
			width="14"
			height="14"
			viewBox="0 0 14 14"
			fill="none"
			xmlns="http://www.w3.org/2000/svg"
			stroke="currentColor"
		>
			<path
				d="M12.833 3.79175H9.33301"
				strokeWidth="1.5"
				strokeMiterlimit="10"
				strokeLinecap="round"
				strokeLinejoin="round"
			/>
			<path
				d="M3.50033 3.79175H1.16699"
				strokeWidth="1.5"
				strokeMiterlimit="10"
				strokeLinecap="round"
				strokeLinejoin="round"
			/>
			<path
				d="M5.83366 5.83333C6.96124 5.83333 7.87533 4.91925 7.87533 3.79167C7.87533 2.66409 6.96124 1.75 5.83366 1.75C4.70608 1.75 3.79199 2.66409 3.79199 3.79167C3.79199 4.91925 4.70608 5.83333 5.83366 5.83333Z"
				strokeWidth="1.5"
				strokeMiterlimit="10"
				strokeLinecap="round"
				strokeLinejoin="round"
			/>
			<path
				d="M12.8333 10.2083H10.5"
				strokeWidth="1.5"
				strokeMiterlimit="10"
				strokeLinecap="round"
				strokeLinejoin="round"
			/>
			<path
				d="M4.66699 10.2083H1.16699"
				strokeWidth="1.5"
				strokeMiterlimit="10"
				strokeLinecap="round"
				strokeLinejoin="round"
			/>
			<path
				d="M8.16667 12.2501C9.29425 12.2501 10.2083 11.336 10.2083 10.2084C10.2083 9.08083 9.29425 8.16675 8.16667 8.16675C7.03909 8.16675 6.125 9.08083 6.125 10.2084C6.125 11.336 7.03909 12.2501 8.16667 12.2501Z"
				strokeWidth="1.5"
				strokeMiterlimit="10"
				strokeLinecap="round"
				strokeLinejoin="round"
			/>
		</svg>
