<svg
			width="28"
			height="22"
			viewBox="0 0 28 22"
			fill="none"
			xmlns="http://www.w3.org/2000/svg"

		>
			<path
				d="M13.9697 17.785C13.2511 17.785 12.5837 17.6515 11.9677 17.3846C11.3517 17.1074 10.8281 16.7326 10.3969 16.2604C9.96574 15.7881 9.64747 15.244 9.44214 14.628L10.9821 13.9812C11.2593 14.6896 11.6649 15.2337 12.1987 15.6136C12.7326 15.9934 13.3486 16.1834 14.0467 16.1834C14.4574 16.1834 14.8167 16.1218 15.1247 15.9986C15.4327 15.8651 15.6689 15.6803 15.8331 15.4442C16.0077 15.208 16.0949 14.936 16.0949 14.628C16.0949 14.207 15.9769 13.8734 15.7407 13.627C15.5046 13.3806 15.1555 13.1855 14.6935 13.0418L12.5375 12.3642C11.6751 12.0972 11.0181 11.6917 10.5663 11.1476C10.1146 10.5932 9.88874 9.94638 9.88874 9.20718C9.88874 8.56038 10.0479 7.99572 10.3661 7.51318C10.6844 7.02038 11.1207 6.63538 11.6751 6.35818C12.2398 6.08098 12.8815 5.94238 13.6001 5.94238C14.288 5.94238 14.9143 6.06558 15.4789 6.31198C16.0436 6.54812 16.5261 6.87665 16.9265 7.29758C17.3372 7.71852 17.6349 8.20618 17.8197 8.76058L16.3105 9.42278C16.0847 8.81705 15.7305 8.34992 15.2479 8.02138C14.7757 7.69285 14.2264 7.52858 13.6001 7.52858C13.2203 7.52858 12.8866 7.59532 12.5991 7.72878C12.3117 7.85198 12.0858 8.03678 11.9215 8.28318C11.7675 8.51932 11.6905 8.79652 11.6905 9.11478C11.6905 9.48438 11.8086 9.81292 12.0447 10.1004C12.2809 10.3878 12.6402 10.6034 13.1227 10.7472L15.1247 11.3786C16.0385 11.6558 16.7263 12.0562 17.1883 12.5798C17.6503 13.0931 17.8813 13.7348 17.8813 14.5048C17.8813 15.1413 17.7119 15.706 17.3731 16.1988C17.0446 16.6916 16.5877 17.0817 16.0025 17.3692C15.4173 17.6464 14.7397 17.785 13.9697 17.785Z"
				fill="#2F80ED"
			/>
		</svg>
