	<svg
			width="28"
			height="22"
			viewBox="0 0 28 22"
			fill="none"
			xmlns="http://www.w3.org/2000/svg"
		>
			<path
				d="M4.1626 17.5999L7.9048 11.7941L4.2242 6.12694H6.2878L9.3678 10.8701H8.49L11.5392 6.12694H13.6028L9.9376 11.7941L13.6798 17.5999H11.6162L8.49 12.7335L9.3678 12.7489L6.2108 17.5999H4.1626Z"
				fill="#2F80ED"
			/>
			<path
				d="M18.741 17.7847C18.0223 17.7847 17.355 17.6513 16.739 17.3843C16.123 17.1071 15.5994 16.7324 15.1682 16.2601C14.737 15.7879 14.4187 15.2437 14.2134 14.6277L15.7534 13.9809C16.0306 14.6893 16.4361 15.2335 16.97 15.6133C17.5039 15.9932 18.1199 16.1831 18.818 16.1831C19.2287 16.1831 19.588 16.1215 19.896 15.9983C20.204 15.8649 20.4401 15.6801 20.6044 15.4439C20.7789 15.2078 20.8662 14.9357 20.8662 14.6277C20.8662 14.2068 20.7481 13.8731 20.512 13.6267C20.2759 13.3803 19.9268 13.1853 19.4648 13.0415L17.3088 12.3639C16.4464 12.097 15.7893 11.6915 15.3376 11.1473C14.8859 10.5929 14.66 9.94614 14.66 9.20694C14.66 8.56014 14.8191 7.99547 15.1374 7.51294C15.4557 7.02014 15.892 6.63514 16.4464 6.35794C17.0111 6.08074 17.6527 5.94214 18.3714 5.94214C19.0593 5.94214 19.6855 6.06534 20.2502 6.31174C20.8148 6.54787 21.2974 6.87641 21.6978 7.29734C22.1085 7.71827 22.4062 8.20594 22.591 8.76034L21.0818 9.42254C20.8559 8.8168 20.5017 8.34967 20.0192 8.02114C19.5469 7.69261 18.9977 7.52834 18.3714 7.52834C17.9915 7.52834 17.6579 7.59507 17.3704 7.72854C17.0829 7.85174 16.8571 8.03654 16.6928 8.28294C16.5388 8.51907 16.4618 8.79627 16.4618 9.11454C16.4618 9.48414 16.5799 9.81267 16.816 10.1001C17.0521 10.3876 17.4115 10.6032 17.894 10.7469L19.896 11.3783C20.8097 11.6555 21.4976 12.0559 21.9596 12.5795C22.4216 13.0929 22.6526 13.7345 22.6526 14.5045C22.6526 15.1411 22.4832 15.7057 22.1444 16.1985C21.8159 16.6913 21.359 17.0815 20.7738 17.3689C20.1886 17.6461 19.511 17.7847 18.741 17.7847Z"
				fill="#2F80ED"
			/>
		</svg>
