<svg
			width="28"
			height="22"
			viewBox="0 0 28 22"
			fill="none"
			xmlns="http://www.w3.org/2000/svg"

		>
			<path
				d="M0.169434 17.6L3.91163 11.7942L0.231034 6.12695H2.29463L5.37463 10.8702H4.49683L7.54603 6.12695H9.60963L5.94443 11.7942L9.68663 17.6H7.62303L4.49683 12.7336L5.37463 12.749L2.21763 17.6H0.169434Z"
				fill="#EE6C4D"
			/>
			<path
				d="M9.71202 17.6L13.4542 11.7942L9.77362 6.12695H11.8372L14.9172 10.8702H14.0394L17.0886 6.12695H19.1522L15.487 11.7942L19.2292 17.6H17.1656L14.0394 12.7336L14.9172 12.749L11.7602 17.6H9.71202Z"
				fill="#EE6C4D"
			/>
			<path d="M20.271 17.6V6.12695H22.0882V15.983H27.047V17.6H20.271Z" fill="#EE6C4D" />
		</svg>
