<svg width="16" height="16" viewBox="0 0 16 16" fill="none" xmlns="http://www.w3.org/2000/svg">
<path d="M6.19292 13.9999C5.64214 13.9973 5.09738 13.8851 4.59035 13.67C4.08333 13.4548 3.62417 13.1409 3.23959 12.7466C2.8579 12.3848 2.55129 11.9514 2.33731 11.471C2.12333 10.9906 2.00618 10.4727 1.99255 9.94702C1.97893 9.42131 2.06911 8.89807 2.25792 8.40725C2.44674 7.91643 2.73048 7.46765 3.09292 7.08661L7.99959 2.13327C8.26162 1.87173 8.57393 1.66599 8.91768 1.52849C9.26142 1.391 9.62947 1.32459 9.99959 1.33327C10.3961 1.33462 10.7883 1.4149 11.1534 1.56942C11.5186 1.72394 11.8493 1.94961 12.1263 2.23327C12.6776 2.7641 12.9973 3.49095 13.016 4.25606C13.0348 5.02117 12.751 5.76278 12.2263 6.31994L7.29292 11.2733C7.13491 11.4324 6.94688 11.5585 6.73974 11.6443C6.5326 11.7301 6.31048 11.774 6.08626 11.7733C5.84404 11.7736 5.60421 11.7254 5.38094 11.6315C5.15766 11.5376 4.95545 11.3999 4.78626 11.2266C4.44808 10.8992 4.25277 10.4515 4.24279 9.98091C4.2328 9.51029 4.40894 9.05475 4.73292 8.71327L9.28626 4.13994C9.41585 4.05388 9.57145 4.01584 9.72613 4.03242C9.88081 4.049 10.0248 4.11914 10.1332 4.23071C10.2416 4.34229 10.3076 4.48826 10.3197 4.64335C10.3318 4.79844 10.2893 4.95288 10.1996 5.07994L5.64626 9.65327C5.57033 9.74475 5.53337 9.86239 5.54335 9.98085C5.55332 10.0993 5.60943 10.2091 5.69959 10.2866C5.7934 10.3811 5.91986 10.4359 6.05292 10.4399C6.10221 10.4406 6.15116 10.4316 6.19693 10.4133C6.24269 10.395 6.28438 10.3678 6.31959 10.3333L11.2463 5.37994C11.5228 5.07273 11.6673 4.66903 11.6486 4.25611C11.6299 3.84319 11.4495 3.45422 11.1463 3.17327C10.8646 2.8809 10.4817 2.70758 10.0762 2.68898C9.67067 2.67038 9.27345 2.80791 8.96626 3.07327L4.03959 7.99994C3.80002 8.25726 3.6137 8.55941 3.49134 8.889C3.36899 9.2186 3.31301 9.56914 3.32664 9.92045C3.34028 10.2718 3.42324 10.6169 3.57077 10.936C3.71829 11.2552 3.92747 11.542 4.18626 11.7799C4.44578 12.049 4.7563 12.2636 5.0997 12.4112C5.4431 12.5589 5.81247 12.6366 6.18626 12.6399C6.50854 12.6426 6.82816 12.5815 7.12676 12.4602C7.42536 12.3389 7.69706 12.1599 7.92626 11.9333L12.8529 6.97994C12.9146 6.91778 12.988 6.86839 13.0688 6.83458C13.1496 6.80077 13.2363 6.78321 13.3239 6.7829C13.4115 6.78259 13.4983 6.79954 13.5793 6.83278C13.6604 6.86601 13.7341 6.91489 13.7963 6.97661C13.8584 7.03833 13.9078 7.11169 13.9416 7.1925C13.9754 7.27331 13.993 7.35999 13.9933 7.44758C13.9936 7.53518 13.9767 7.62198 13.9434 7.70303C13.9102 7.78408 13.8613 7.85778 13.7996 7.91994L8.87292 12.8733C8.52313 13.2293 8.10608 13.5122 7.646 13.7056C7.18593 13.899 6.692 13.9991 6.19292 13.9999Z" fill="#B1AEBC"/>
</svg>
