<svg width="20" height="20" viewBox="0 0 20 20" fill="none" xmlns="http://www.w3.org/2000/svg">
<rect width="20" height="20" rx="10" fill="#C24A4A"/>
<path d="M10 14.5C9.45833 14.5 8.95633 14.3667 8.494 14.1C8.03133 13.8333 7.66667 13.4667 7.4 13H6V12H7.05C7.025 11.8333 7.0105 11.6667 7.0065 11.5C7.00217 11.3333 7 11.1667 7 11H6V10H7C7 9.83333 7.00217 9.66667 7.0065 9.5C7.0105 9.33333 7.025 9.16667 7.05 9H6V8H7.4C7.51667 7.80833 7.648 7.62917 7.794 7.4625C7.93967 7.29583 8.10833 7.15 8.3 7.025L7.5 6.2L8.2 5.5L9.275 6.575C9.50833 6.5 9.74583 6.4625 9.9875 6.4625C10.2292 6.4625 10.4667 6.5 10.7 6.575L11.8 5.5L12.5 6.2L11.675 7.025C11.8667 7.15 12.0397 7.29367 12.194 7.456C12.348 7.61867 12.4833 7.8 12.6 8H14V9H12.95C12.975 9.16667 12.9897 9.33333 12.994 9.5C12.998 9.66667 13 9.83333 13 10H14V11H13C13 11.1667 12.998 11.3333 12.994 11.5C12.9897 11.6667 12.975 11.8333 12.95 12H14V13H12.6C12.3333 13.4667 11.9688 13.8333 11.5065 14.1C11.0438 14.3667 10.5417 14.5 10 14.5ZM10 13.5C10.55 13.5 11.0208 13.3042 11.4125 12.9125C11.8042 12.5208 12 12.05 12 11.5V9.5C12 8.95 11.8042 8.47917 11.4125 8.0875C11.0208 7.69583 10.55 7.5 10 7.5C9.45 7.5 8.97917 7.69583 8.5875 8.0875C8.19583 8.47917 8 8.95 8 9.5V11.5C8 12.05 8.19583 12.5208 8.5875 12.9125C8.97917 13.3042 9.45 13.5 10 13.5ZM9 12H11V11H9V12ZM9 10H11V9H9V10Z" fill="white"/>
</svg>
