<svg width="8" height="8" viewBox="0 0 8 8" fill="none" xmlns="http://www.w3.org/2000/svg">
<path d="M1.6665 3.33341H2.33317C2.99984 3.33341 3.33317 3.00008 3.33317 2.33341V1.66675C3.33317 1.00008 2.99984 0.666748 2.33317 0.666748H1.6665C0.999837 0.666748 0.666504 1.00008 0.666504 1.66675V2.33341C0.666504 3.00008 0.999837 3.33341 1.6665 3.33341Z" stroke="#292D32" stroke-miterlimit="10" stroke-linecap="round" stroke-linejoin="round"/>
<path d="M5.6665 3.33341H6.33317C6.99984 3.33341 7.33317 3.00008 7.33317 2.33341V1.66675C7.33317 1.00008 6.99984 0.666748 6.33317 0.666748H5.6665C4.99984 0.666748 4.6665 1.00008 4.6665 1.66675V2.33341C4.6665 3.00008 4.99984 3.33341 5.6665 3.33341Z" stroke="#292D32" stroke-miterlimit="10" stroke-linecap="round" stroke-linejoin="round"/>
<path d="M5.6665 7.33342H6.33317C6.99984 7.33342 7.33317 7.00008 7.33317 6.33341V5.66675C7.33317 5.00008 6.99984 4.66675 6.33317 4.66675H5.6665C4.99984 4.66675 4.6665 5.00008 4.6665 5.66675V6.33341C4.6665 7.00008 4.99984 7.33342 5.6665 7.33342Z" stroke="#292D32" stroke-miterlimit="10" stroke-linecap="round" stroke-linejoin="round"/>
<path d="M1.6665 7.33342H2.33317C2.99984 7.33342 3.33317 7.00008 3.33317 6.33341V5.66675C3.33317 5.00008 2.99984 4.66675 2.33317 4.66675H1.6665C0.999837 4.66675 0.666504 5.00008 0.666504 5.66675V6.33341C0.666504 7.00008 0.999837 7.33342 1.6665 7.33342Z" stroke="#292D32" stroke-miterlimit="10" stroke-linecap="round" stroke-linejoin="round"/>
</svg>
