<?xml version="1.0" encoding="UTF-8" standalone="no"?>
<svg
   width="32"
   height="32"
   viewBox="0 0 32 32"
   fill="none"
   version="1.1"
   id="svg33"
   sodipodi:docname="edit-header-pencil.svg"
   xml:space="preserve"
   inkscape:version="1.2.2 (732a01da63, 2022-12-09, custom)"
   xmlns:inkscape="http://www.inkscape.org/namespaces/inkscape"
   xmlns:sodipodi="http://sodipodi.sourceforge.net/DTD/sodipodi-0.dtd"
   xmlns="http://www.w3.org/2000/svg"
   xmlns:svg="http://www.w3.org/2000/svg"><defs
     id="defs37" /><sodipodi:namedview
     id="namedview35"
     pagecolor="#ffffff"
     bordercolor="#000000"
     borderopacity="0.25"
     inkscape:showpageshadow="2"
     inkscape:pageopacity="0.0"
     inkscape:pagecheckerboard="0"
     inkscape:deskcolor="#d1d1d1"
     showgrid="false"
     inkscape:zoom="18.328125"
     inkscape:cx="7.7476556"
     inkscape:cy="16.777494"
     inkscape:window-width="3440"
     inkscape:window-height="1376"
     inkscape:window-x="1920"
     inkscape:window-y="27"
     inkscape:window-maximized="1"
     inkscape:current-layer="svg33" /><circle
     cx="16"
     cy="16"
     r="16"
     fill="#EDEDED"
     id="circle25" /><g
     style="fill:#501616"
     id="g228"
     transform="translate(4.0642316,4.077086)"><path
       d="M 12,22.75 C 6.07,22.75 1.25,17.93 1.25,12 1.25,6.07 6.07,1.25 12,1.25 c 5.93,0 10.75,4.82 10.75,10.75 0,5.93 -4.82,10.75 -10.75,10.75 z m 0,-20 C 6.9,2.75 2.75,6.9 2.75,12 c 0,5.1 4.15,9.25 9.25,9.25 5.1,0 9.25,-4.15 9.25,-9.25 C 21.25,6.9 17.1,2.75 12,2.75 Z"
       fill="#292d32"
       id="path213"
       style="fill:#ececec" /><path
       d="m 8.2696266,16.983996 c -0.2504392,0 -0.5008785,-0.09746 -0.6985937,-0.306304 -0.3822494,-0.403763 -0.3822494,-1.072061 0,-1.475824 L 15.03154,7.3215369 c 0.382249,-0.4037633 1.014938,-0.4037633 1.397187,0 0.38225,0.4037632 0.38225,1.072061 0,1.4758243 L 8.9682204,16.677692 c -0.1845342,0.208843 -0.4481545,0.306304 -0.6985938,0.306304 z"
       fill="#292d32"
       id="path215"
       style="fill:#501616;stroke-width:1.35469" /><path
       d="m 15.730133,16.983996 c -0.250439,0 -0.500878,-0.09746 -0.698593,-0.306304 L 7.5710329,8.7973612 c -0.3822494,-0.4037633 -0.3822494,-1.0720611 0,-1.4758243 0.3822494,-0.4037633 1.0149381,-0.4037633 1.3971875,0 l 7.4605066,7.8803311 c 0.38225,0.403763 0.38225,1.072061 0,1.475824 -0.197715,0.208843 -0.448154,0.306304 -0.698594,0.306304 z"
       fill="#292d32"
       id="path217"
       style="fill:#501616;stroke-width:1.35469" /></g><g
     style="fill:#5d6c53"
     id="g298"
     transform="translate(43.323223,1.5018714)"><path
       d="M 12,22.75 C 6.07,22.75 1.25,17.93 1.25,12 1.25,6.07 6.07,1.25 12,1.25 c 5.93,0 10.75,4.82 10.75,10.75 0,5.93 -4.82,10.75 -10.75,10.75 z m 0,-20 C 6.9,2.75 2.75,6.9 2.75,12 c 0,5.1 4.15,9.25 9.25,9.25 5.1,0 9.25,-4.15 9.25,-9.25 C 21.25,6.9 17.1,2.75 12,2.75 Z"
       fill="#292d32"
       id="path286"
       style="fill:#5d6c53" /><path
       d="m 10.5799,15.5801 c -0.2,0 -0.39,-0.08 -0.53,-0.22 l -2.82996,-2.83 c -0.29,-0.29 -0.29,-0.77 0,-1.06 0.29,-0.29 0.77,-0.29 1.06,0 l 2.29996,2.3 5.14,-5.14 c 0.29,-0.29 0.77,-0.29 1.06,0 0.29,0.29 0.29,0.77 0,1.06 l -5.67,5.67 c -0.14,0.14 -0.33,0.22 -0.53,0.22 z"
       fill="#292d32"
       id="path288"
       style="fill:#5d6c53" /></g></svg>
