<svg width="16" height="16" viewBox="0 0 16 16" fill="none" xmlns="http://www.w3.org/2000/svg">
<path d="M10.6668 8.60016V11.4002C10.6668 13.7335 9.7335 14.6668 7.40016 14.6668H4.60016C2.26683 14.6668 1.3335 13.7335 1.3335 11.4002V8.60016C1.3335 6.26683 2.26683 5.3335 4.60016 5.3335H7.40016C9.7335 5.3335 10.6668 6.26683 10.6668 8.60016Z" stroke="#B1AEBC" stroke-width="1.2" stroke-linecap="round" stroke-linejoin="round"/>
<path d="M14.6668 4.60016V7.40016C14.6668 9.7335 13.7335 10.6668 11.4002 10.6668H10.6668V8.60016C10.6668 6.26683 9.7335 5.3335 7.40016 5.3335H5.3335V4.60016C5.3335 2.26683 6.26683 1.3335 8.60016 1.3335H11.4002C13.7335 1.3335 14.6668 2.26683 14.6668 4.60016Z" stroke="#B1AEBC" stroke-width="1.2" stroke-linecap="round" stroke-linejoin="round"/>
</svg>
