<svg width="12" height="13" viewBox="0 0 12 13" fill="none" xmlns="http://www.w3.org/2000/svg">
<path d="M1.5 5.05493V7.93993C1.5 8.99993 1.5 8.99993 2.5 9.67493L5.25 11.2649C5.665 11.5049 6.34 11.5049 6.75 11.2649L9.5 9.67493C10.5 8.99993 10.5 8.99993 10.5 7.94493V5.05493C10.5 3.99993 10.5 3.99993 9.5 3.32493L6.75 1.73493C6.34 1.49493 5.665 1.49493 5.25 1.73493L2.5 3.32493C1.5 3.99993 1.5 3.99993 1.5 5.05493Z" stroke="#A5A2B2" stroke-linecap="round" stroke-linejoin="round"/>
<path d="M6 8C6.82843 8 7.5 7.32843 7.5 6.5C7.5 5.67157 6.82843 5 6 5C5.17157 5 4.5 5.67157 4.5 6.5C4.5 7.32843 5.17157 8 6 8Z" stroke="#A5A2B2" stroke-linecap="round" stroke-linejoin="round"/>
</svg>
