<svg xmlns="http://www.w3.org/2000/svg" id="In_Progress-595b40b75ba036ed117d84b0" data-name="In Progress-595b40b75ba036ed117d84b0" width="10" height="10.032" viewBox="0 0 10 10.032">
  <g id="Group_9294" data-name="Group 9294" transform="translate(2.251 3.078)">
    <rect id="Rectangle_778" data-name="Rectangle 778" width="1.098" height="3.026" transform="matrix(0.707, -0.707, 0.707, 0.707, 0, 1.964)" fill="#735ea8"/>
    <rect id="Rectangle_779" data-name="Rectangle 779" width="4.675" height="1.159" transform="translate(1.342 3.306) rotate(-45)" fill="#735ea8"/>
  </g>
  <g id="Group_9296" data-name="Group 9296" transform="translate(4.384 8.905)">
    <g id="Group_9295" data-name="Group 9295">
      <path id="Path_5645" data-name="Path 5645" d="M22.381,40.023a5.267,5.267,0,0,1-.612-.036L21.9,38.9a4.091,4.091,0,0,0,.484.028Z" transform="translate(-21.769 -38.897)" fill="#735ea8"/>
    </g>
  </g>
  <path id="Path_5646" data-name="Path 5646" d="M14.418,36.67l-.588.928a5.2,5.2,0,0,0,1.046.511l.368-1.035A4.111,4.111,0,0,1,14.418,36.67Z" transform="translate(-11.545 -28.376)" fill="#735ea8"/>
  <path id="Path_5647" data-name="Path 5647" d="M9.392,32.679l-.777.774a5.261,5.261,0,0,1-.725-.911l.931-.582A4.215,4.215,0,0,0,9.392,32.679Z" transform="translate(-7.13 -24.959)" fill="#735ea8"/>
  <path id="Path_5648" data-name="Path 5648" d="M6.413,26.575l-1.035.362A5.063,5.063,0,0,1,5.12,25.8l1.09-.124A4.317,4.317,0,0,0,6.413,26.575Z" transform="translate(-5.12 -20.251)" fill="#735ea8"/>
  <path id="Path_5649" data-name="Path 5649" d="M6.413,18.12a3.991,3.991,0,0,0-.2.895l-1.09-.121a5.142,5.142,0,0,1,.255-1.134Z" transform="translate(-5.12 -14.41)" fill="#735ea8"/>
  <path id="Path_5650" data-name="Path 5650" d="M9.382,11.391a4.263,4.263,0,0,0-.571.722l-.931-.582A5.272,5.272,0,0,1,8.6,10.62Z" transform="translate(-7.122 -9.077)" fill="#735ea8"/>
  <path id="Path_5651" data-name="Path 5651" d="M15.224,7.135a4.009,4.009,0,0,0-.824.4l-.59-.925A5.2,5.2,0,0,1,14.856,6.1Z" transform="translate(-11.53 -5.798)" fill="#735ea8"/>
  <g id="Group_9298" data-name="Group 9298" transform="translate(4.384)">
    <g id="Group_9297" data-name="Group 9297">
      <path id="Path_5652" data-name="Path 5652" d="M21.9,6.126,21.77,5.036A5.234,5.234,0,0,1,22.382,5V6.1A4.192,4.192,0,0,0,21.9,6.126Z" transform="translate(-21.77 -5)" fill="#735ea8"/>
    </g>
  </g>
  <g id="Group_9300" data-name="Group 9300" transform="translate(4.784)">
    <g id="Group_9299" data-name="Group 9299">
      <path id="Path_5653" data-name="Path 5653" d="M24,15.032V13.976a4.046,4.046,0,0,0,4.118-3.96A4.046,4.046,0,0,0,24,6.056V5a5.125,5.125,0,0,1,5.216,5.016A5.125,5.125,0,0,1,24,15.032Z" transform="translate(-24 -5)" fill="#735ea8"/>
    </g>
  </g>
</svg>