<svg width="12" height="12" viewBox="0 0 12 12" fill="none" xmlns="http://www.w3.org/2000/svg">
<path d="M3 5V4C3 2.345 3.5 1 6 1C8.5 1 9 2.345 9 4V5" stroke="#293241" stroke-width="1.2" stroke-linecap="round" stroke-linejoin="round"/>
<path d="M6 9.25C6.69036 9.25 7.25 8.69036 7.25 8C7.25 7.30964 6.69036 6.75 6 6.75C5.30964 6.75 4.75 7.30964 4.75 8C4.75 8.69036 5.30964 9.25 6 9.25Z" stroke="#293241" stroke-width="1.2" stroke-linecap="round" stroke-linejoin="round"/>
<path d="M8.5 11H3.5C1.5 11 1 10.5 1 8.5V7.5C1 5.5 1.5 5 3.5 5H8.5C10.5 5 11 5.5 11 7.5V8.5C11 10.5 10.5 11 8.5 11Z" stroke="#293241" stroke-width="1.2" stroke-linecap="round" stroke-linejoin="round"/>
</svg>
