<svg width="16" height="16" viewBox="0 0 16 16" fill="none" xmlns="http://www.w3.org/2000/svg">
<path d="M3.33333 6.6665C2.6 6.6665 2 7.2665 2 7.99984C2 8.73317 2.6 9.33317 3.33333 9.33317C4.06667 9.33317 4.66667 8.73317 4.66667 7.99984C4.66667 7.2665 4.06667 6.6665 3.33333 6.6665Z" stroke="#B1AEBC" stroke-width="1.3"/>
<path d="M12.6673 6.6665C11.934 6.6665 11.334 7.2665 11.334 7.99984C11.334 8.73317 11.934 9.33317 12.6673 9.33317C13.4007 9.33317 14.0007 8.73317 14.0007 7.99984C14.0007 7.2665 13.4007 6.6665 12.6673 6.6665Z" stroke="#B1AEBC" stroke-width="1.3"/>
<path d="M7.99935 6.6665C7.26602 6.6665 6.66602 7.2665 6.66602 7.99984C6.66602 8.73317 7.26602 9.33317 7.99935 9.33317C8.73268 9.33317 9.33268 8.73317 9.33268 7.99984C9.33268 7.2665 8.73268 6.6665 7.99935 6.6665Z" stroke="#B1AEBC" stroke-width="1.3"/>
</svg>
