<svg width="20" height="21" viewBox="0 0 20 21" fill="none" xmlns="http://www.w3.org/2000/svg">
<path d="M4.16667 8.8335C3.25 8.8335 2.5 9.5835 2.5 10.5002C2.5 11.4168 3.25 12.1668 4.16667 12.1668C5.08333 12.1668 5.83333 11.4168 5.83333 10.5002C5.83333 9.5835 5.08333 8.8335 4.16667 8.8335Z" stroke="#282048" stroke-width="1.2"/>
<path d="M15.8334 8.8335C14.9167 8.8335 14.1667 9.5835 14.1667 10.5002C14.1667 11.4168 14.9167 12.1668 15.8334 12.1668C16.7501 12.1668 17.5001 11.4168 17.5001 10.5002C17.5001 9.5835 16.7501 8.8335 15.8334 8.8335Z" stroke="#282048" stroke-width="1.2"/>
<path d="M9.99992 8.8335C9.08325 8.8335 8.33325 9.5835 8.33325 10.5002C8.33325 11.4168 9.08325 12.1668 9.99992 12.1668C10.9166 12.1668 11.6666 11.4168 11.6666 10.5002C11.6666 9.5835 10.9166 8.8335 9.99992 8.8335Z" stroke="#292D32" stroke-width="1.2"/>
</svg>
