<svg width="71" height="72" viewBox="0 0 71 72" fill="none" xmlns="http://www.w3.org/2000/svg">
<rect x="0.5" width="70" height="70" rx="35" fill="#6755C9" fill-opacity="0.2"/>
<g filter="url(#filter0_d_2609_142180)">
<path d="M25.3438 27.7812C25.3438 24.4549 28.0486 21.75 31.375 21.75C34.701 21.75 37.4057 24.4544 37.4062 27.7803C37.393 31.0436 34.8456 33.6801 31.5998 33.7987H31.5998H31.5997H31.5997H31.5996H31.5996H31.5995H31.5995H31.5994H31.5994H31.5993H31.5993H31.5992H31.5992H31.5991H31.5991H31.599H31.599H31.599H31.5989H31.5989H31.5988H31.5988H31.5987H31.5987H31.5986H31.5986H31.5985H31.5985H31.5985H31.5984H31.5984H31.5983H31.5983H31.5982H31.5982H31.5982H31.5981H31.5981H31.598H31.598H31.5979H31.5979H31.5978H31.5978H31.5978H31.5977H31.5977H31.5976H31.5976H31.5975H31.5975H31.5975H31.5974H31.5974H31.5973H31.5973H31.5972H31.5972H31.5972H31.5971H31.5971H31.597H31.597H31.597H31.5969H31.5969H31.5968H31.5968H31.5967H31.5967H31.5967H31.5966H31.5966H31.5965H31.5965H31.5965H31.5964H31.5964H31.5963H31.5963H31.5963H31.5962H31.5962H31.5961H31.5961H31.5961H31.596H31.596H31.5959H31.5959H31.5958H31.5958H31.5958H31.5957H31.5957H31.5956H31.5956H31.5956H31.5955H31.5955H31.5954H31.5954H31.5954H31.5953H31.5953H31.5952H31.5952H31.5952H31.5951H31.5951H31.595H31.595H31.595H31.5949H31.5949H31.5948H31.5948H31.5948H31.5947H31.5947H31.5946H31.5946H31.5946H31.5945H31.5945H31.5944H31.5944H31.5944H31.5943H31.5943H31.5942H31.5942H31.5942H31.5941H31.5941H31.594H31.594H31.5939H31.5939H31.5939H31.5938H31.5938H31.5937H31.5937H31.5937H31.5936H31.5936H31.5935H31.5935H31.5935H31.5934H31.5934H31.5933H31.5933H31.5933H31.5932H31.5932H31.5931H31.5931H31.593H31.593H31.593H31.5929H31.5929H31.5928H31.5928H31.5928H31.5927H31.5927H31.5926H31.5926H31.5925H31.5925H31.5925H31.5924H31.5924H31.5923H31.5923H31.5922H31.5922H31.5922H31.5921H31.5921H31.592H31.592H31.5919H31.5919H31.5918H31.5918H31.5918H31.5917H31.5917H31.5916H31.5916H31.5915H31.5915H31.5914H31.5914H31.5914H31.5913H31.5913H31.5912H31.5912H31.5911H31.5911H31.591H31.591H31.591H31.5909H31.5909H31.5908H31.5908H31.5907H31.5907H31.5906H31.5906H31.5905H31.5905H31.5904H31.5904H31.5903H31.5903H31.5902H31.5902H31.5902H31.5901H31.5901H31.59H31.59H31.5899H31.5899H31.5898H31.5898H31.5897H31.5897H31.5896H31.5896H31.5895H31.5895H31.5894H31.5894H31.5893H31.5893H31.5892H31.5892H31.5891H31.5891H31.589H31.589H31.5889H31.5888H31.5888H31.5887H31.5887H31.5886H31.5886H31.5885H31.5885H31.5884H31.5884H31.5883H31.5883H31.5882H31.5882H31.5881H31.588H31.588H31.5879H31.5879H31.5878H31.5878H31.5877H31.5877H31.5876H31.5875H31.5875H31.5874H31.5874H31.5873H31.5873H31.5872H31.5871H31.5871H31.587H31.587H31.5869H31.5869H31.5868H31.5867H31.5867H31.5866H31.5866H31.5865H31.5864H31.5864H31.5863H31.5862H31.5862H31.5861H31.5861H31.586H31.5859H31.5859H31.5858H31.5858H31.5857H31.5856H31.5856H31.5855H31.5854H31.5854H31.5853H31.5852H31.5852H31.5851H31.585H31.585H31.5849H31.5848H31.5848H31.5847H31.5846H31.5846H31.5845H31.5844H31.5844H31.5843H31.5842H31.5842H31.5841H31.584H31.584H31.5839H31.5838H31.5837H31.5837H31.5836H31.5835H31.5835H31.5834H31.5833H31.5832H31.5832H31.5831H31.583H31.5829H31.5829H31.5828H31.5827H31.5826H31.5826H31.5825H31.5824H31.5823H31.5823H31.5822H31.5821H31.582H31.582H31.5819H31.5818H31.5817H31.5816H31.5816H31.5815H31.5814H31.5813H31.5812H31.5811H31.5809H31.5808H31.5806H31.5804H31.5803H31.5801H31.58H31.5798H31.5797H31.5795H31.5793H31.5792H31.579H31.5789H31.5787H31.5786H31.5784H31.5782H31.5781H31.5779H31.5778H31.5776H31.5775H31.5773H31.5772H31.577H31.5769H31.5767H31.5766H31.5764H31.5762H31.5761H31.5759H31.5758H31.5756H31.5755H31.5753H31.5752H31.575H31.5749H31.5747H31.5746H31.5744H31.5743H31.5742H31.574H31.5739H31.5737H31.5736H31.5734H31.5733H31.5731H31.573H31.5728H31.5727H31.5725H31.5724H31.5722H31.5721H31.572H31.5718H31.5717H31.5715H31.5714H31.5712H31.5711H31.571H31.5708H31.5707H31.5705H31.5704H31.5702H31.5701H31.57H31.5698H31.5697H31.5695H31.5694H31.5693H31.5691H31.569H31.5688H31.5687H31.5686H31.5684H31.5683H31.5681H31.568H31.5679H31.5677H31.5676H31.5675H31.5673H31.5672H31.567H31.5669H31.5668H31.5666H31.5665H31.5664H31.5662H31.5661H31.566H31.5658H31.5657H31.5656H31.5654H31.5653H31.5652H31.565H31.5649H31.5648H31.5646H31.5645H31.5644H31.5642H31.5641H31.564H31.5638H31.5637H31.5636H31.5634H31.5633H31.5632H31.563H31.5629H31.5628H31.5626H31.5625H31.5624H31.5623H31.5621H31.562H31.5619H31.5617H31.5616H31.5615H31.5613H31.5612H31.5611H31.561H31.5608H31.5607H31.5606H31.5604H31.5603H31.5602H31.5601H31.5599H31.5598H31.5597H31.5595H31.5594H31.5593H31.5592H31.559H31.5589H31.5588H31.5587H31.5585H31.5584H31.5583H31.5582H31.558H31.5579H31.5578H31.5576H31.5575H31.5574H31.5573H31.5571H31.557H31.5569H31.5568H31.5566H31.5565H31.5564H31.5563H31.5561H31.556H31.5559H31.5558H31.5557H31.5555H31.5554H31.5553H31.5552H31.555H31.5549H31.5548H31.5547H31.5545H31.5544H31.5543H31.5542H31.554H31.5539H31.5538H31.5537H31.5536H31.5534H31.5533H31.5532H31.5531H31.5529H31.5528H31.5527H31.5526H31.5525H31.5523H31.5522H31.5521H31.552H31.5518H31.5517H31.5516H31.5515H31.5514H31.5512H31.5511H31.551H31.5509H31.5507H31.5506H31.5505H31.5504H31.5503H31.5501H31.55H31.5499H31.5498H31.5497H31.5495H31.5494H31.5493H31.5492H31.5491H31.5489H31.5488H31.5487H31.5486H31.5484H31.5483H31.5482H31.5481H31.548H31.5478H31.5478C31.4319 33.7844 31.3073 33.786 31.1913 33.7977C27.8722 33.6655 25.3438 31.0303 25.3438 27.7812Z" fill="#3826A6" stroke="#3826A6"/>
<path d="M24.6685 46.3961L24.6672 46.3952C23.0357 45.3076 22.1948 43.8805 22.1948 42.3975C22.1948 40.9141 23.0361 39.4735 24.6806 38.3724C26.5141 37.1592 28.9423 36.5381 31.392 36.5381C33.8424 36.5381 36.2634 37.1595 38.0825 38.3722C39.7103 39.4575 40.542 40.8842 40.5548 42.3719C40.5541 43.8683 39.7128 45.2952 38.0808 46.3963C36.255 47.6221 33.8276 48.25 31.3748 48.25C28.9219 48.25 26.4944 47.6221 24.6685 46.3961Z" fill="#3826A6" stroke="#3826A6"/>
<path d="M39.1684 32.7484C40.4282 31.3987 41.1224 29.5362 40.9623 27.5351L40.9623 27.5351L40.962 27.532C40.8766 26.5441 40.5809 25.6274 40.1339 24.8153C40.468 24.7024 40.8276 24.6271 41.1951 24.5943C43.6148 24.3848 45.7776 26.1884 45.9881 28.6344C46.1851 31.0272 44.4925 33.1165 42.1518 33.4138H42.1139C42.1098 33.4138 42.105 33.4137 42.0997 33.4137C42.0444 33.4133 41.9241 33.4124 41.7954 33.4446C40.8143 33.4835 39.9092 33.227 39.1684 32.7484Z" fill="#3826A6" stroke="#3826A6"/>
<path d="M48.7385 41.2646L48.7385 41.2646L48.738 41.2702C48.6452 42.3961 47.9258 43.4206 46.6035 44.1453L46.6029 44.1457C45.6188 44.6869 44.4241 45.0157 43.1772 45.1218C43.7563 44.3381 44.1058 43.449 44.1929 42.5126L44.193 42.5126L44.1935 42.5065C44.3473 40.5987 43.4311 38.8131 41.7124 37.4293L41.7124 37.4293L41.709 37.4267C41.1494 36.984 40.5388 36.596 39.8891 36.2621C42.4633 35.953 45.2984 36.6021 47.1348 38.0842L47.1355 38.0847C48.3079 39.0277 48.8425 40.1554 48.7385 41.2646Z" fill="#3826A6" stroke="#3826A6"/>
</g>
<defs>
<filter id="filter0_d_2609_142180" x="7" y="17.5" width="57" height="57" filterUnits="userSpaceOnUse" color-interpolation-filters="sRGB">
<feFlood flood-opacity="0" result="BackgroundImageFix"/>
<feColorMatrix in="SourceAlpha" type="matrix" values="0 0 0 0 0 0 0 0 0 0 0 0 0 0 0 0 0 0 127 0" result="hardAlpha"/>
<feOffset dy="11"/>
<feGaussianBlur stdDeviation="6"/>
<feComposite in2="hardAlpha" operator="out"/>
<feColorMatrix type="matrix" values="0 0 0 0 0 0 0 0 0 0 0 0 0 0 0 0 0 0 0.25 0"/>
<feBlend mode="normal" in2="BackgroundImageFix" result="effect1_dropShadow_2609_142180"/>
<feBlend mode="normal" in="SourceGraphic" in2="effect1_dropShadow_2609_142180" result="shape"/>
</filter>
</defs>
</svg>
