<svg width="12" height="12" viewBox="0 0 12 12" fill="none" xmlns="http://www.w3.org/2000/svg">
<path d="M9.00004 3.58C8.97004 3.575 8.93504 3.575 8.90504 3.58C8.21504 3.555 7.66504 2.99 7.66504 2.29C7.66504 1.575 8.24004 1 8.95504 1C9.67004 1 10.245 1.58 10.245 2.29C10.24 2.99 9.69004 3.555 9.00004 3.58Z" stroke="#A5A2B2" stroke-width="1.2" stroke-linecap="round" stroke-linejoin="round"/>
<path d="M8.48497 7.22008C9.16997 7.33508 9.92497 7.21508 10.455 6.86008C11.16 6.39008 11.16 5.62008 10.455 5.15008C9.91997 4.79508 9.15497 4.67508 8.46997 4.79508" stroke="#A5A2B2" stroke-width="1.2" stroke-linecap="round" stroke-linejoin="round"/>
<path d="M2.98499 3.58C3.01499 3.575 3.04999 3.575 3.07999 3.58C3.76999 3.555 4.31999 2.99 4.31999 2.29C4.31999 1.575 3.74499 1 3.02999 1C2.31499 1 1.73999 1.58 1.73999 2.29C1.74499 2.99 2.29499 3.555 2.98499 3.58Z" stroke="#A5A2B2" stroke-width="1.2" stroke-linecap="round" stroke-linejoin="round"/>
<path d="M3.49997 7.22008C2.81497 7.33508 2.05997 7.21508 1.52997 6.86008C0.824971 6.39008 0.824971 5.62008 1.52997 5.15008C2.06497 4.79508 2.82997 4.67508 3.51497 4.79508" stroke="#A5A2B2" stroke-width="1.2" stroke-linecap="round" stroke-linejoin="round"/>
<path d="M6.00004 7.31487C5.97004 7.30987 5.93504 7.30987 5.90504 7.31487C5.21504 7.28987 4.66504 6.72486 4.66504 6.02486C4.66504 5.30986 5.24004 4.73486 5.95504 4.73486C6.67004 4.73486 7.24504 5.31486 7.24504 6.02486C7.24004 6.72486 6.69004 7.29487 6.00004 7.31487Z" stroke="#A5A2B2" stroke-width="1.2" stroke-linecap="round" stroke-linejoin="round"/>
<path d="M4.54511 8.88969C3.84011 9.35969 3.84011 10.1297 4.54511 10.5997C5.34511 11.1347 6.65511 11.1347 7.45511 10.5997C8.16011 10.1297 8.16011 9.35969 7.45511 8.88969C6.66011 8.35969 5.34511 8.35969 4.54511 8.88969Z" stroke="#A5A2B2" stroke-width="1.2" stroke-linecap="round" stroke-linejoin="round"/>
</svg>
