<svg width="21" height="21" viewBox="0 0 21 21" fill="none" xmlns="http://www.w3.org/2000/svg">
<path d="M14.1692 9.44531C14.621 8.89629 14.9074 8.23014 14.995 7.52454C15.0826 6.81895 14.9678 6.10298 14.664 5.46015C14.3602 4.81731 13.8799 4.27409 13.2791 3.89384C12.6783 3.51359 11.9818 3.31197 11.2708 3.3125H5.33325C5.08461 3.3125 4.84615 3.41127 4.67034 3.58709C4.49452 3.7629 4.39575 4.00136 4.39575 4.25V16.125C4.39575 16.3736 4.49452 16.6121 4.67034 16.7879C4.84615 16.9637 5.08461 17.0625 5.33325 17.0625H12.2083C13.1084 17.0612 13.9826 16.761 14.6937 16.209C15.4047 15.657 15.9123 14.8845 16.1367 14.0128C16.3611 13.1411 16.2896 12.2195 15.9335 11.3928C15.5774 10.5661 14.9568 9.88109 14.1692 9.44531ZM6.27075 5.1875H11.2708C11.768 5.1875 12.2449 5.38505 12.5966 5.73668C12.9482 6.08831 13.1458 6.56522 13.1458 7.0625C13.1458 7.55978 12.9482 8.0367 12.5966 8.38833C12.2449 8.73996 11.768 8.9375 11.2708 8.9375H6.27075V5.1875ZM12.2083 15.1875H6.27075V10.8125H12.2083C12.7884 10.8125 13.3448 11.043 13.755 11.4532C14.1653 11.8634 14.3958 12.4198 14.3958 13C14.3958 13.5802 14.1653 14.1366 13.755 14.5468C13.3448 14.957 12.7884 15.1875 12.2083 15.1875Z" fill="black"/>
</svg>
