<svg width="16" height="16" viewBox="0 0 16 16" fill="none" xmlns="http://www.w3.org/2000/svg">
<path d="M4.83398 4.66683H11.1673V3.3335C11.1673 2.00016 10.6673 1.3335 9.16732 1.3335H6.83398C5.33398 1.3335 4.83398 2.00016 4.83398 3.3335V4.66683Z" stroke="#B1AEBC" stroke-width="1.3" stroke-miterlimit="10" stroke-linecap="round" stroke-linejoin="round"/>
<path d="M10.6673 10V12.6667C10.6673 14 10.0007 14.6667 8.66732 14.6667H7.33398C6.00065 14.6667 5.33398 14 5.33398 12.6667V10H10.6673Z" stroke="#B1AEBC" stroke-width="1.3" stroke-miterlimit="10" stroke-linecap="round" stroke-linejoin="round"/>
<path d="M14 6.6665V9.99984C14 11.3332 13.3333 11.9998 12 11.9998H10.6667V9.99984H5.33333V11.9998H4C2.66667 11.9998 2 11.3332 2 9.99984V6.6665C2 5.33317 2.66667 4.6665 4 4.6665H12C13.3333 4.6665 14 5.33317 14 6.6665Z" stroke="#B1AEBC" stroke-width="1.3" stroke-miterlimit="10" stroke-linecap="round" stroke-linejoin="round"/>
<path d="M11.3327 10H10.526H4.66602" stroke="#B1AEBC" stroke-width="1.3" stroke-miterlimit="10" stroke-linecap="round" stroke-linejoin="round"/>
<path d="M4.66602 7.3335H6.66602" stroke="#B1AEBC" stroke-width="1.5" stroke-miterlimit="10" stroke-linecap="round" stroke-linejoin="round"/>
</svg>
