<svg width="12" height="12" viewBox="0 0 12 12" fill="none" xmlns="http://www.w3.org/2000/svg">
<path d="M6.08003 5.435C6.03003 5.43 5.97003 5.43 5.91503 5.435C4.72503 5.395 3.78003 4.42 3.78003 3.22C3.78003 1.995 4.77003 1 6.00003 1C7.22503 1 8.22003 1.995 8.22003 3.22C8.21503 4.42 7.27003 5.395 6.08003 5.435Z" stroke="#A5A2B2" stroke-width="1.2" stroke-linecap="round" stroke-linejoin="round"/>
<path d="M3.58011 7.28C2.37011 8.09 2.37011 9.41 3.58011 10.215C4.95511 11.135 7.21011 11.135 8.58511 10.215C9.79511 9.405 9.79511 8.085 8.58511 7.28C7.21511 6.365 4.96011 6.365 3.58011 7.28Z" stroke="#A5A2B2" stroke-width="1.2" stroke-linecap="round" stroke-linejoin="round"/>
</svg>
