<svg xmlns="http://www.w3.org/2000/svg" xmlns:xlink="http://www.w3.org/1999/xlink" version="1.1" width="256" height="256" viewBox="0 0 256 256" xml:space="preserve">

<defs>
</defs>
<g style="stroke: none; stroke-width: 0; stroke-dasharray: none; stroke-linecap: butt; stroke-linejoin: miter; stroke-miterlimit: 10; fill: none; fill-rule: nonzero; opacity: 1;" transform="translate(1.4065934065934016 1.4065934065934016) scale(2.81 2.81)" >
	<path d="M 45 67.16 L 45 67.16 c -4.333 0 -7.879 -3.545 -7.879 -7.879 v -2.825 c 0 -4.333 3.545 -7.879 7.879 -7.879 h 0 c 4.333 0 7.879 3.545 7.879 7.879 v 2.825 C 52.879 63.615 49.333 67.16 45 67.16 z" style="stroke: none; stroke-width: 1; stroke-dasharray: none; stroke-linecap: butt; stroke-linejoin: miter; stroke-miterlimit: 10; fill: rgb(0,0,0); fill-rule: nonzero; opacity: 1;" transform=" matrix(1 0 0 1 0 0) " stroke-linecap="round" />
	<path d="M 49.436 68.243 c -1.333 0.69 -2.839 1.087 -4.436 1.087 s -3.103 -0.397 -4.436 -1.087 C 34.607 69.132 30 74.301 30 80.494 v 8.15 C 30 89.39 30.61 90 31.356 90 h 27.288 C 59.39 90 60 89.39 60 88.644 v -8.15 C 60 74.301 55.393 69.132 49.436 68.243 z" style="stroke: none; stroke-width: 1; stroke-dasharray: none; stroke-linecap: butt; stroke-linejoin: miter; stroke-miterlimit: 10; fill: rgb(0,0,0); fill-rule: nonzero; opacity: 1;" transform=" matrix(1 0 0 1 0 0) " stroke-linecap="round" />
	<path d="M 75 18.582 L 75 18.582 c -4.333 0 -7.879 -3.545 -7.879 -7.879 V 7.879 C 67.121 3.545 70.667 0 75 0 h 0 c 4.333 0 7.879 3.545 7.879 7.879 v 2.825 C 82.879 15.037 79.333 18.582 75 18.582 z" style="stroke: none; stroke-width: 1; stroke-dasharray: none; stroke-linecap: butt; stroke-linejoin: miter; stroke-miterlimit: 10; fill: rgb(0,0,0); fill-rule: nonzero; opacity: 1;" transform=" matrix(1 0 0 1 0 0) " stroke-linecap="round" />
	<path d="M 79.436 19.665 c -1.333 0.69 -2.839 1.087 -4.436 1.087 s -3.103 -0.397 -4.436 -1.087 C 64.607 20.554 60 25.723 60 31.917 v 8.15 c 0 0.746 0.61 1.356 1.356 1.356 h 27.288 c 0.746 0 1.356 -0.61 1.356 -1.356 v -8.15 C 90 25.723 85.393 20.554 79.436 19.665 z" style="stroke: none; stroke-width: 1; stroke-dasharray: none; stroke-linecap: butt; stroke-linejoin: miter; stroke-miterlimit: 10; fill: rgb(0,0,0); fill-rule: nonzero; opacity: 1;" transform=" matrix(1 0 0 1 0 0) " stroke-linecap="round" />
	<path d="M 15 18.582 L 15 18.582 c -4.333 0 -7.879 -3.545 -7.879 -7.879 V 7.879 C 7.121 3.545 10.667 0 15 0 h 0 c 4.333 0 7.879 3.545 7.879 7.879 v 2.825 C 22.879 15.037 19.333 18.582 15 18.582 z" style="stroke: none; stroke-width: 1; stroke-dasharray: none; stroke-linecap: butt; stroke-linejoin: miter; stroke-miterlimit: 10; fill: rgb(0,0,0); fill-rule: nonzero; opacity: 1;" transform=" matrix(1 0 0 1 0 0) " stroke-linecap="round" />
	<path d="M 19.436 19.665 c -1.333 0.69 -2.839 1.087 -4.436 1.087 s -3.103 -0.397 -4.436 -1.087 C 4.607 20.554 0 25.723 0 31.917 v 8.15 c 0 0.746 0.61 1.356 1.356 1.356 h 27.288 c 0.746 0 1.356 -0.61 1.356 -1.356 v -8.15 C 30 25.723 25.393 20.554 19.436 19.665 z" style="stroke: none; stroke-width: 1; stroke-dasharray: none; stroke-linecap: butt; stroke-linejoin: miter; stroke-miterlimit: 10; fill: rgb(0,0,0); fill-rule: nonzero; opacity: 1;" transform=" matrix(1 0 0 1 0 0) " stroke-linecap="round" />
	<path d="M 32.964 31.001 c 3.715 -1.167 7.777 -1.815 12.036 -1.815 s 8.321 0.648 12.036 1.815 c 0.124 -2.05 0.656 -4.01 1.529 -5.787 C 54.352 23.909 49.78 23.187 45 23.187 c -4.78 0 -9.351 0.723 -13.565 2.027 C 32.309 26.991 32.84 28.951 32.964 31.001 z" style="stroke: none; stroke-width: 1; stroke-dasharray: none; stroke-linecap: butt; stroke-linejoin: miter; stroke-miterlimit: 10; fill: rgb(0,0,0); fill-rule: nonzero; opacity: 1;" transform=" matrix(1 0 0 1 0 0) " stroke-linecap="round" />
	<path d="M 28.389 74.183 c -9.094 -4.279 -15.171 -11.957 -15.171 -20.701 c 0 -3.202 0.822 -6.258 2.301 -9.059 H 8.945 c -1.121 2.862 -1.727 5.905 -1.727 9.059 c 0 11.487 8.015 21.501 19.796 26.636 C 27.067 78.021 27.552 76.013 28.389 74.183 z" style="stroke: none; stroke-width: 1; stroke-dasharray: none; stroke-linecap: butt; stroke-linejoin: miter; stroke-miterlimit: 10; fill: rgb(0,0,0); fill-rule: nonzero; opacity: 1;" transform=" matrix(1 0 0 1 0 0) " stroke-linecap="round" />
	<path d="M 81.054 44.422 h -6.574 c 1.479 2.802 2.301 5.857 2.301 9.059 c 0 8.744 -6.077 16.422 -15.17 20.701 c 0.837 1.83 1.322 3.838 1.375 5.934 c 11.781 -5.135 19.796 -15.149 19.796 -26.636 C 82.781 50.327 82.175 47.284 81.054 44.422 z" style="stroke: none; stroke-width: 1; stroke-dasharray: none; stroke-linecap: butt; stroke-linejoin: miter; stroke-miterlimit: 10; fill: rgb(0,0,0); fill-rule: nonzero; opacity: 1;" transform=" matrix(1 0 0 1 0 0) " stroke-linecap="round" />
</g>
</svg>