<?xml version="1.0" encoding="UTF-8" standalone="no"?>
<svg
   class="svg-icon"
   style="overflow:hidden;fill:currentColor"
   viewBox="0 0 20 20"
   version="1.1"
   id="svg321"
   width="20"
   height="20"
   xmlns="http://www.w3.org/2000/svg"
   xmlns:svg="http://www.w3.org/2000/svg">
  <defs
     id="defs325" />
  <path
     d="m 6.7427148,3.40681 v 7.19425 c 0,0.844767 0.1785202,1.547345 0.5342587,2.107734 0.5290465,0.844766 1.419044,1.267747 2.6725981,1.267747 1.5024414,0 2.5240484,-0.456438 3.0648224,-1.370505 0.290584,-0.497062 0.436529,-1.164989 0.436529,-2.004976 V 3.40681 h 1.799541 v 6.5370776 c 0,1.4314414 -0.21631,2.5331034 -0.650232,3.3037874 -0.79748,1.405155 -2.299921,2.107733 -4.508625,2.107733 -2.2087055,0 -3.7085403,-0.702578 -4.4982011,-2.107733 C 5.1594833,12.476991 4.943174,11.375329 4.943174,9.9438876 V 3.40681 Z M 2.9885677,17.745127 H 17.322348 v 1.194861 H 2.9885677 Z"
     id="path319"
     style="stroke-width:0.0329009" />
</svg>
