<svg width="20" height="21" viewBox="0 0 20 21" fill="none" xmlns="http://www.w3.org/2000/svg">
<path d="M13.4917 2.1665H6.50841C3.47508 2.1665 1.66675 3.97484 1.66675 7.00817V13.9832C1.66675 17.0248 3.47508 18.8332 6.50841 18.8332H13.4834C16.5167 18.8332 18.3251 17.0248 18.3251 13.9915V7.00817C18.3334 3.97484 16.5251 2.1665 13.4917 2.1665ZM13.9834 8.58317L9.25841 13.3082C9.14175 13.4248 8.98341 13.4915 8.81675 13.4915C8.65008 13.4915 8.49175 13.4248 8.37508 13.3082L6.01675 10.9498C5.77508 10.7082 5.77508 10.3082 6.01675 10.0665C6.25841 9.82484 6.65841 9.82484 6.90008 10.0665L8.81675 11.9832L13.1001 7.69984C13.3417 7.45817 13.7417 7.45817 13.9834 7.69984C14.2251 7.9415 14.2251 8.33317 13.9834 8.58317Z" fill="#34AC6B"/>
</svg>
