<svg width="16" height="16" viewBox="0 0 16 16" fill="none" xmlns="http://www.w3.org/2000/svg">
<path d="M12.667 6.66662C12.667 4.51728 11.2137 2.70662 9.23638 2.16528C9.13677 1.91909 8.96591 1.70825 8.7457 1.5598C8.52549 1.41134 8.26596 1.33203 8.00038 1.33203C7.7348 1.33203 7.47527 1.41134 7.25506 1.5598C7.03485 1.70825 6.86399 1.91909 6.76438 2.16528C6.39503 2.26659 6.03966 2.41326 5.70638 2.60195L6.70105 3.59595C7.20794 3.38139 7.76007 3.2957 8.30815 3.34652C8.85623 3.39734 9.3832 3.5831 9.84199 3.8872C10.3008 4.19131 10.6771 4.60429 10.9374 5.08929C11.1977 5.57428 11.3339 6.11619 11.3337 6.66662V8.22862L12.667 9.56195V6.66662ZM2.11705 11.6226L3.33371 9.79795V6.66662C3.33371 5.96662 3.48771 5.30262 3.76438 4.70662L2.19571 3.13795C2.13204 3.07645 2.08125 3.00289 2.04631 2.92155C2.01137 2.84022 1.99298 2.75274 1.99221 2.66422C1.99144 2.5757 2.00831 2.48791 2.04183 2.40598C2.07535 2.32405 2.12485 2.24961 2.18745 2.18702C2.25004 2.12442 2.32448 2.07492 2.40641 2.0414C2.48834 2.00788 2.57613 1.99101 2.66465 1.99178C2.75317 1.99255 2.84065 2.01094 2.92198 2.04588C3.00332 2.08082 3.07688 2.13161 3.13838 2.19528L13.805 12.8619C13.9265 12.9877 13.9937 13.1561 13.9922 13.3309C13.9906 13.5057 13.9205 13.6729 13.7969 13.7965C13.6733 13.9201 13.5061 13.9902 13.3313 13.9917C13.1565 13.9933 12.9881 13.9261 12.8624 13.8046L11.7244 12.6666H10.3104C10.2311 13.2228 9.95386 13.7317 9.5295 14.0999C9.10514 14.4681 8.56219 14.6708 8.00038 14.6708C7.43857 14.6708 6.89562 14.4681 6.47126 14.0999C6.0469 13.7317 5.76963 13.2228 5.69038 12.6666H2.67571C2.52272 12.669 2.37361 12.6183 2.25371 12.5233C2.12097 12.4186 2.03299 12.2674 2.00761 12.1003C1.98224 11.9332 2.02136 11.762 2.11705 11.6226ZM3.91371 11.3333H10.3917L4.79838 5.73995C4.71126 6.04113 4.66704 6.35309 4.66705 6.66662V9.99995C4.66708 10.1316 4.6281 10.2604 4.55505 10.3699L3.91371 11.3333ZM7.05771 12.6666C7.12643 12.8619 7.25408 13.0311 7.42305 13.1508C7.59203 13.2705 7.79398 13.3348 8.00105 13.3348C8.20811 13.3348 8.41007 13.2705 8.57904 13.1508C8.74801 13.0311 8.87567 12.8619 8.94438 12.6666H7.05771Z" fill="#B1AEBC"/>
</svg>
