<svg width="28" height="28" viewBox="0 0 28 28" fill="none" xmlns="http://www.w3.org/2000/svg">
	<path d="M20.4043 11.2L6.53268 19.565C5.71602 20.055 4.66602 19.4717 4.66602 18.515V9.18168C4.66602 5.11002 9.06435 2.56668 12.5993 4.59668L17.9544 7.67668L20.3927 9.07668C21.1977 9.55502 21.2094 10.7217 20.4043 11.2Z" fill="currentColor"/>
	<path d="M21.1056 18.0367L16.3806 20.7667L11.6673 23.485C9.97559 24.4533 8.06226 24.255 6.67393 23.275C5.99726 22.8083 6.07893 21.77 6.79059 21.35L21.6189 12.46C22.3189 12.04 23.2406 12.4367 23.3689 13.2417C23.6606 15.05 22.9139 16.9983 21.1056 18.0367Z" fill="currentColor"/>
</svg>
