<svg width="28" height="28" viewBox="0 0 28 28" fill="none" xmlns="http://www.w3.org/2000/svg">
	<path d="M23.7533 9.07667L5.29667 20.16C4.585 20.5917 3.62833 20.16 3.535 19.3317C3.51167 19.11 3.5 18.8883 3.5 18.6667V9.33333C3.5 5.83333 5.83333 3.5 9.33333 3.5H18.6667C22.1667 3.5 23.6017 5.29667 24.2783 7.75833C24.4183 8.27167 24.1967 8.80833 23.7533 9.07667Z" fill="currentColor"/>
	<path d="M24.4999 12.9383V18.6666C24.4999 22.1666 22.1666 24.4999 18.6666 24.4999H9.33323C8.2599 24.4999 7.2449 24.2083 6.38156 23.6949C5.6349 23.2633 5.68156 22.1666 6.41656 21.7233L22.7266 11.9349C23.5082 11.4683 24.4999 12.0283 24.4999 12.9383Z" fill="currentColor"/>
</svg>
