<svg fill="none" height="24" viewBox="0 0 24 24" width="24" xmlns="http://www.w3.org/2000/svg"><g fill="currentColor"><path d="m14.55 22.42c-.33 0-.64-.22-.73-.56-.11-.4.13-.81.54-.92 4.06-1.07 6.89-4.75 6.89-8.95 0-5.1-4.15-9.25-9.25-9.25-4.33 0-7.17 2.53-8.5 4.06h2.94c.41 0 .75.34.75.75s-.33.76-.75.76h-4.43c-.05 0-.14-.01-.21-.03-.09-.03-.17-.07-.24-.12-.09-.06-.16-.14-.21-.23s-.09-.2-.1-.31c0-.03 0-.05 0-.08v-4.54c0-.41.34-.75.75-.75s.75.34.75.75v2.39c1.63-1.75 4.7-4.14 9.25-4.14 5.93 0 10.75 4.82 10.75 10.75 0 4.88-3.29 9.16-8.01 10.4-.06.01-.13.02-.19.02z"/><path d="m11.29 22.73c-.02 0-.04-.01-.05-.01-1.08-.07-2.14-.31-3.14-.7-.29-.11-.49-.4-.48-.71 0-.09.02-.18.05-.26.15-.38.6-.57.97-.43.87.34 1.78.54 2.7.61.39.02.7.36.7.76l-.01.04c-.02.39-.35.7-.74.7zm-5.51-2.15c-.17 0-.33-.06-.47-.16-.84-.68-1.58-1.47-2.18-2.35-.09-.13-.14-.27-.14-.42 0-.25.12-.48.33-.62.33-.23.81-.14 1.04.18v.01c.01.01.02.03.03.04.52.75 1.15 1.42 1.86 1.98.17.14.28.35.28.58 0 .17-.05.34-.16.48-.15.18-.36.28-.59.28zm-3.34-4.88c-.33 0-.62-.21-.71-.52-.32-1.03-.48-2.1-.48-3.18v-.01c.01-.41.34-.74.75-.74s.75.34.75.75c0 .94.14 1.86.41 2.73.02.08.03.15.03.23 0 .32-.21.61-.53.71-.07.02-.14.03-.22.03z"/></g></svg>
