<svg width="49" height="56" viewBox="0 0 49 56" fill="none" xmlns="http://www.w3.org/2000/svg">
<g clip-path="url(#clip0_484_3106)">
<mask id="mask0_484_3106" style="mask-type:luminance" maskUnits="userSpaceOnUse" x="0" y="0" width="49" height="56">
<path d="M49 0H0V56H49V0Z" fill="white"/>
</mask>
<g mask="url(#mask0_484_3106)">
<path fillRule="evenodd" clipRule="evenodd" d="M21.104 1.49002C21.104 0.667406 21.7556 0 22.5594 0H27.047C27.8508 0 28.5025 0.667406 28.5025 1.49002V6.29185C30.2005 6.57706 31.8397 7.03977 33.401 7.66158L35.8342 3.74154C36.2651 3.046 37.1646 2.84132 37.843 3.28271L41.631 5.7457C42.3094 6.18708 42.51 7.10768 42.0791 7.80224L39.8158 11.4497C45.415 16.0352 49 23.0798 49 30.98C49 44.7986 38.031 56 24.5 56C10.969 56 0 44.7986 0 30.98C0 18.3382 9.18027 7.88761 21.104 6.19873V1.49002ZM44.6337 30.98C44.6337 42.3191 35.6298 51.5299 24.5 51.5299C13.3702 51.5299 4.36634 42.3191 4.36634 30.98C4.36634 19.641 13.3702 10.4302 24.5 10.4302C35.6298 10.4302 44.6337 19.641 44.6337 30.98ZM30.2214 20.5896C30.7959 19.8311 31.8625 19.6924 32.6037 20.2812C33.3449 20.869 33.4801 21.9613 32.9056 22.72L27.6616 29.6462C27.6969 29.7384 27.7285 29.8315 27.7562 29.9275C27.7911 30.0478 27.8199 30.171 27.8419 30.2961C27.8632 30.4164 27.8783 30.5396 27.8871 30.6638C27.893 30.7482 27.896 30.8325 27.896 30.918C27.896 32.8377 26.3756 34.3947 24.5 34.3947C22.6244 34.3947 21.104 32.8377 21.104 30.918C21.104 28.9982 22.6244 27.4412 24.5 27.4412C24.5911 27.4412 24.6814 27.4451 24.7707 27.4519L24.8984 27.4646L25.0053 27.4791L30.2214 20.5896Z" fill="black"/>
</g>
</g>
<defs>
<clipPath id="clip0_484_3106">
<rect width="49" height="56" fill="white"/>
</clipPath>
</defs>
</svg>
