<svg width="160" height="22" id="ever-teams-logo" class="mb-1 w-40 cursor-pointer" viewBox="0 0 132 18" fill="none" xmlns="http://www.w3.org/2000/svg"><g clip-path="url(#clip0_1413_4277)"><path fill-rule="evenodd" clip-rule="evenodd" d="M12.7706 10.705L14.1706 14.4711C12.262 15.657 10.0534 16.2709 7.80657 16.2401C3.23957 16.2401 0.997559 13.3869 0.997559 9.59289C0.955998 8.40619 1.15595 7.22344 1.58527 6.11633C2.01459 5.00923 2.66433 4.0009 3.49509 3.15247C4.32585 2.30403 5.3203 1.63331 6.41812 1.18079C7.51594 0.728259 8.69425 0.503322 9.88156 0.519897C13.6376 0.519897 15.5996 2.68791 15.5996 5.65491C15.563 7.00454 15.257 8.33344 14.6996 9.56311H5.98357C5.95557 10.9631 6.90857 12.016 8.81357 12.016C10.223 11.9247 11.5854 11.4732 12.7706 10.705ZM11.3136 6.59704C11.398 6.35835 11.4452 6.10815 11.4536 5.8551C11.4536 5.0281 10.8086 4.4281 9.63156 4.4281C8.95707 4.4136 8.29582 4.61651 7.74564 5.00696C7.19545 5.3974 6.78555 5.9546 6.57657 6.59607L11.3136 6.59704ZM18.9646 9.50696L19.4646 6.50696C19.6046 5.79396 19.5766 5.2511 18.9646 5.2511C18.4901 5.2583 18.0222 5.36367 17.5906 5.56091L18.1796 1.2279C19.2915 0.820192 20.4706 0.626653 21.6546 0.657104C24.0656 0.657104 25.5546 1.82594 24.9616 5.16394L24.3456 8.6449C24.0936 10.2749 24.4576 11.1281 25.5506 11.1281C27.1506 11.1281 28.1576 9.87307 28.1576 6.22107C28.1296 4.42881 27.8848 2.64641 27.4286 0.912963H33.0106C33.2736 2.49747 33.4144 4.09983 33.4316 5.70593C33.4316 12.3799 30.4046 16.119 24.8316 16.119C20.0856 16.122 18.2646 13.587 18.9646 9.50696ZM47.4086 10.7069L48.8085 14.473C46.8999 15.6589 44.6914 16.2728 42.4446 16.2421C37.8756 16.2421 35.6336 13.3891 35.6336 9.59509C35.5927 8.40814 35.7933 7.22516 36.2232 6.11804C36.653 5.01092 37.3033 4.00253 38.1344 3.15417C38.9656 2.30582 39.9603 1.63521 41.0584 1.18274C42.1565 0.730267 43.335 0.50555 44.5226 0.522094C48.2786 0.522094 50.2406 2.6901 50.2406 5.6571C50.2062 7.00625 49.9025 8.33488 49.3475 9.56506H40.6306C40.6026 10.9651 41.5556 12.0179 43.4606 12.0179C44.8677 11.9245 46.2275 11.4725 47.4106 10.705L47.4086 10.7069ZM45.9546 6.599C46.0389 6.36028 46.0861 6.11009 46.0946 5.85705C46.0946 5.03005 45.4496 4.43005 44.2726 4.43005C43.5981 4.41555 42.9368 4.61847 42.3866 5.00891C41.8365 5.39935 41.4266 5.95656 41.2176 6.59802L45.9546 6.599ZM52.9046 15.8429L54.5046 6.51404C54.6166 5.80104 54.6166 5.25793 54.0046 5.25793C53.5242 5.28506 53.0515 5.38981 52.6046 5.56799L53.2216 1.23498C54.3478 0.848996 55.5311 0.655904 56.7216 0.66394C58.4036 0.66394 59.6366 1.29208 60.0006 2.80408C60.3752 2.1485 60.9179 1.60453 61.5726 1.22839C62.2273 0.852251 62.9705 0.657391 63.7256 0.66394C64.586 0.652789 65.4352 0.859271 66.1946 1.26404L64.7095 6.28503C63.878 5.8883 62.9679 5.68316 62.0466 5.68494C61.4101 5.71419 60.8046 5.96817 60.3377 6.40173C59.8708 6.8353 59.5728 7.42053 59.4966 8.0531L58.1516 15.8419L52.9046 15.8429ZM67.8397 9.55127C68.5363 9.54536 69.219 9.74631 69.8014 10.1284C70.3839 10.5105 70.84 11.0567 71.112 11.698C71.384 12.3393 71.4597 13.0469 71.3295 13.7312C71.1994 14.4156 70.8692 15.046 70.3808 15.5427C69.8923 16.0394 69.2676 16.3801 68.5855 16.5217C67.9034 16.6633 67.1946 16.5994 66.5489 16.3381C65.9031 16.0769 65.3493 15.6302 64.9575 15.0542C64.5656 14.4782 64.3535 13.7989 64.3477 13.1023V13.0723C64.3457 12.6117 64.4345 12.1555 64.6089 11.7292C64.7833 11.303 65.04 10.9152 65.3642 10.5881C65.6885 10.2611 66.074 10.0011 66.4987 9.823C66.9235 9.64494 67.3791 9.55324 67.8397 9.55127ZM67.8397 10.0203C67.2361 10.0153 66.6447 10.1896 66.1401 10.5208C65.6355 10.852 65.2404 11.3254 65.0049 11.8811C64.7693 12.4368 64.7038 13.0499 64.8166 13.6428C64.9294 14.2358 65.2155 14.7818 65.6387 15.2122C66.062 15.6425 66.6033 15.9378 67.1942 16.0605C67.7852 16.1833 68.3993 16.1279 68.9589 15.9016C69.5184 15.6754 69.9983 15.2883 70.3379 14.7893C70.6775 14.2903 70.8615 13.7019 70.8667 13.0984V13.0723C70.8684 12.6732 70.7915 12.2778 70.6403 11.9084C70.4892 11.5391 70.2668 11.2031 69.9858 10.9197C69.7048 10.6363 69.3707 10.4109 69.0027 10.2566C68.6346 10.1023 68.2388 10.022 67.8397 10.0203ZM66.8887 11.0784H68.0097C68.3349 11.0575 68.6552 11.1653 68.9017 11.3784C69.0056 11.4838 69.0831 11.6123 69.1278 11.7534C69.1724 11.8946 69.183 12.0444 69.1587 12.1904C69.1427 12.4193 69.0537 12.6368 68.9047 12.8113C68.7438 12.9968 68.5369 13.1365 68.3047 13.2163L68.8827 14.8022V14.8354H68.3697L67.8487 13.3145H66.9887L66.7277 14.8345H66.2437L66.8887 11.0784ZM67.3007 11.4854L67.0547 12.9084H67.7607C67.9845 12.9147 68.2036 12.8439 68.3817 12.7083C68.4649 12.6452 68.5344 12.5659 68.5859 12.4751C68.6375 12.3843 68.6701 12.2842 68.6817 12.1804C68.699 12.0919 68.6965 12.0006 68.6744 11.9131C68.6523 11.8256 68.6111 11.744 68.5537 11.6743C68.4867 11.6103 68.4073 11.5606 68.3205 11.5283C68.2337 11.496 68.1412 11.4817 68.0487 11.4863L67.3007 11.4854ZM78.4286 12.0494C78.4006 12.3014 78.3866 12.4764 78.3866 12.5744C78.3866 13.4844 78.8206 13.9394 79.6886 13.9394C80.2206 13.9394 80.8156 13.7644 81.4736 13.4144L81.8936 14.3174C81.1376 14.7654 80.3536 14.9894 79.5416 14.9894C78.7996 14.9894 78.2186 14.7934 77.7986 14.4014C77.3786 13.9954 77.1686 13.4214 77.1686 12.6794C77.1686 12.5394 77.1826 12.3294 77.2106 12.0494L78.2396 4.76242H76.3916L76.5386 3.77542H78.4076L79.0166 1.10842L79.9826 1.00342L79.5836 3.77542H82.4186L82.1246 4.76242H79.4576L78.4286 12.0494ZM92.2117 6.19042C92.2117 7.53442 91.5537 8.53542 90.2377 9.19342C88.9217 9.83742 87.0527 10.2504 84.6307 10.4324V10.5584C84.6307 11.7064 84.8757 12.5534 85.3657 13.0994C85.8697 13.6454 86.5557 13.9184 87.4237 13.9184C87.9977 13.9184 88.5227 13.8344 88.9987 13.6664C89.4887 13.4844 89.9997 13.2044 90.5317 12.8264L91.0777 13.6874C90.4897 14.1214 89.8877 14.4504 89.2717 14.6744C88.6697 14.8844 88.0257 14.9894 87.3397 14.9894C86.0797 14.9894 85.0997 14.6044 84.3997 13.8344C83.6997 13.0644 83.3497 11.9794 83.3497 10.5794C83.3497 9.47342 83.5457 8.38142 83.9377 7.30342C84.3437 6.22542 84.9667 5.32942 85.8067 4.61542C86.6607 3.90142 87.7107 3.54442 88.9567 3.54442C89.9787 3.54442 90.7767 3.79642 91.3507 4.30042C91.9247 4.79042 92.2117 5.42042 92.2117 6.19042ZM88.9567 4.55242C87.6967 4.55242 86.7097 5.03542 85.9957 6.00142C85.2957 6.96742 84.8617 8.12242 84.6937 9.46642C86.7937 9.29842 88.3617 8.96242 89.3977 8.45842C90.4337 7.95442 90.9517 7.21242 90.9517 6.23242C90.9517 5.75642 90.7837 5.35742 90.4477 5.03542C90.1117 4.71342 89.6147 4.55242 88.9567 4.55242ZM101.49 3.77542C100.944 3.62142 100.328 3.54442 99.6417 3.54442C98.3537 3.54442 97.2827 3.91542 96.4287 4.65742C95.5887 5.39942 94.9727 6.32342 94.5807 7.42942C94.1887 8.53542 93.9927 9.63442 93.9927 10.7264C93.9927 12.0424 94.2937 13.0854 94.8957 13.8554C95.5117 14.6114 96.3657 14.9894 97.4577 14.9894C98.1297 14.9894 98.7527 14.8144 99.3267 14.4644C99.9147 14.1004 100.419 13.6104 100.839 12.9944C100.825 13.6104 100.944 14.0724 101.196 14.3804C101.448 14.6744 101.819 14.8774 102.309 14.9894L102.666 14.1284C102.414 14.0164 102.232 13.8764 102.12 13.7084C102.022 13.5264 101.973 13.2884 101.973 12.9944C101.973 12.7284 101.987 12.5184 102.015 12.3644L103.17 4.44742C102.596 4.15342 102.036 3.92942 101.49 3.77542ZM97.1847 5.49742C97.8567 4.85342 98.6897 4.53142 99.6837 4.53142C100.468 4.53142 101.196 4.69942 101.868 5.03542L100.923 11.6504C100.447 12.4064 99.9427 12.9804 99.4107 13.3724C98.8927 13.7644 98.3047 13.9604 97.6467 13.9604C96.8907 13.9604 96.3097 13.6874 95.9037 13.1414C95.4977 12.5954 95.2947 11.7904 95.2947 10.7264C95.2947 9.78842 95.4417 8.84342 95.7357 7.89142C96.0437 6.93942 96.5267 6.14142 97.1847 5.49742ZM118.302 3.54442C119.03 3.54442 119.597 3.78242 120.003 4.25842C120.423 4.72042 120.633 5.36442 120.633 6.19042C120.633 6.41442 120.612 6.66642 120.57 6.94642L119.457 14.7584H118.239L119.331 7.05142C119.373 6.77142 119.394 6.51942 119.394 6.29542C119.394 5.14742 118.911 4.57342 117.945 4.57342C117.301 4.57342 116.678 4.88842 116.076 5.51842C115.474 6.14842 114.865 7.01642 114.249 8.12242L113.304 14.7584H112.086L113.178 7.05142C113.22 6.77142 113.241 6.51942 113.241 6.29542C113.241 5.14742 112.758 4.57342 111.792 4.57342C111.134 4.57342 110.504 4.89542 109.902 5.53942C109.314 6.16942 108.712 7.05142 108.096 8.18542L107.172 14.7584H105.954L107.508 3.77542H108.558L108.264 6.48442C109.44 4.52442 110.735 3.54442 112.149 3.54442C112.863 3.54442 113.43 3.78242 113.85 4.25842C114.284 4.73442 114.494 5.40642 114.48 6.27442C115.614 4.45442 116.888 3.54442 118.302 3.54442ZM131.188 4.78342C130.236 3.95742 129.109 3.54442 127.807 3.54442C127.023 3.54442 126.337 3.67742 125.749 3.94342C125.175 4.20942 124.734 4.56642 124.426 5.01442C124.118 5.46242 123.964 5.95242 123.964 6.48442C123.964 7.18442 124.181 7.76542 124.615 8.22742C125.063 8.67542 125.826 9.06742 126.904 9.40342C127.87 9.71142 128.528 10.0264 128.878 10.3484C129.242 10.6704 129.424 11.1254 129.424 11.7134C129.424 12.3854 129.158 12.9314 128.626 13.3514C128.108 13.7574 127.373 13.9604 126.421 13.9604C125.777 13.9604 125.203 13.8624 124.699 13.6664C124.195 13.4704 123.705 13.1764 123.229 12.7844L122.536 13.4984C123.026 13.9604 123.579 14.3244 124.195 14.5904C124.825 14.8564 125.567 14.9894 126.421 14.9894C127.723 14.9894 128.759 14.6814 129.529 14.0654C130.299 13.4494 130.684 12.6304 130.684 11.6084C130.684 10.8104 130.439 10.1664 129.949 9.67642C129.473 9.18642 128.696 8.77342 127.618 8.43742C126.722 8.17142 126.092 7.89142 125.728 7.59742C125.378 7.28942 125.203 6.89742 125.203 6.42142C125.203 5.84742 125.441 5.39942 125.917 5.07742C126.393 4.74142 127.023 4.57342 127.807 4.57342C128.339 4.57342 128.822 4.65042 129.256 4.80442C129.69 4.95842 130.117 5.19642 130.537 5.51842L131.188 4.78342Z" fill="currentColor"></path></g><defs><clipPath id="clip0_1413_4277"><rect width="132" height="17" fill="white" transform="translate(0 0.109863)"></rect></clipPath></defs></svg>
