<svg width="16" height="17" viewBox="0 0 16 17" fill="none" xmlns="http://www.w3.org/2000/svg" stroke="currentColor">
	<path d="M4.6665 6.5L7.99984 8.83333L11.3332 6.5" strokeWidth="1.5" strokeLinecap="round" strokeLinejoin="round"/>
	<path d="M1.33325 11.8333V5.16659C1.33325 4.81296 1.47373 4.47382 1.72378 4.22378C1.97382 3.97373 2.31296 3.83325 2.66659 3.83325H13.3333C13.6869 3.83325 14.026 3.97373 14.2761 4.22378C14.5261 4.47382 14.6666 4.81296 14.6666 5.16659V11.8333C14.6666 12.1869 14.5261 12.526 14.2761 12.7761C14.026 13.0261 13.6869 13.1666 13.3333 13.1666H2.66659C2.31296 13.1666 1.97382 13.0261 1.72378 12.7761C1.47373 12.526 1.33325 12.1869 1.33325 11.8333Z" strokeWidth="1.5"/>
</svg>
