<svg width="124" height="40" viewBox="0 0 124 40" fill="none" xmlns="http://www.w3.org/2000/svg">
<path d="M16.3523 22.9344L20.0359 23.4131C19.6336 25.9521 18.5999 27.9431 16.935 29.3861C15.2839 30.8151 13.2513 31.5297 10.8372 31.5297C7.81256 31.5297 5.37759 30.5446 3.53229 28.5744C1.70087 26.5904 0.785156 23.753 0.785156 20.0624C0.785156 17.676 1.18058 15.5879 1.97142 13.7981C2.76226 12.0083 3.9624 10.6694 5.57184 9.78148C7.19515 8.87964 8.9572 8.42872 10.858 8.42872C13.2583 8.42872 15.2215 9.0392 16.7477 10.2601C18.2739 11.4672 19.252 13.1877 19.6821 15.4214L16.0401 15.9834C15.6932 14.4988 15.0758 13.3819 14.1879 12.6327C13.3138 11.8835 12.2524 11.5088 11.0037 11.5088C9.11676 11.5088 7.58363 12.1887 6.4043 13.5484C5.22498 14.8942 4.63531 17.0309 4.63531 19.9584C4.63531 22.9275 5.20416 25.085 6.34187 26.4308C7.47957 27.7766 8.96414 28.4495 10.7956 28.4495C12.2663 28.4495 13.4941 27.9986 14.4792 27.0968C15.4643 26.1949 16.0887 24.8075 16.3523 22.9344Z" fill="white" stroke="black"/>
<path d="M23.1993 31.0302V8.9282H26.5708V12.2789C27.431 10.7111 28.2219 9.67742 28.9433 9.17794C29.6787 8.67846 30.4834 8.42872 31.3575 8.42872C32.6201 8.42872 33.9034 8.83108 35.2076 9.6358L33.9173 13.1113C33.0016 12.5702 32.0859 12.2997 31.1702 12.2997C30.3516 12.2997 29.6162 12.5494 28.9641 13.0489C28.312 13.5345 27.8472 14.2144 27.5698 15.0884C27.1535 16.4204 26.9454 17.8772 26.9454 19.4589V31.0302H23.1993Z" fill="white" stroke="black"/>
<path d="M51.857 28.3039C50.4695 29.4832 49.1306 30.3156 47.8403 30.8012C46.5639 31.2869 45.1903 31.5297 43.7196 31.5297C41.2916 31.5297 39.4255 30.94 38.1213 29.7607C36.8171 28.5675 36.165 27.0482 36.165 25.2029C36.165 24.1207 36.4078 23.1356 36.8934 22.2477C37.3929 21.3458 38.038 20.6243 38.8289 20.0832C39.6336 19.5421 40.5354 19.1328 41.5344 18.8554C42.2697 18.6611 43.3797 18.4738 44.8642 18.2934C47.8889 17.9327 50.1157 17.5026 51.5448 17.0031C51.5587 16.4898 51.5656 16.1637 51.5656 16.025C51.5656 14.4988 51.2118 13.4235 50.5042 12.7992C49.5469 11.9528 48.1247 11.5297 46.2378 11.5297C44.4758 11.5297 43.1716 11.8418 42.3252 12.4662C41.4928 13.0767 40.8753 14.1658 40.473 15.7336L36.8101 15.2341C37.1431 13.6663 37.6912 12.4037 38.4543 11.4464C39.2173 10.4752 40.3204 9.73292 41.7633 9.21956C43.2062 8.69233 44.8781 8.42872 46.7789 8.42872C48.6658 8.42872 50.199 8.65071 51.3783 9.09469C52.5576 9.53868 53.4248 10.1006 53.9797 10.7804C54.5347 11.4464 54.9232 12.2928 55.1452 13.3195C55.2701 13.9577 55.3325 15.1093 55.3325 16.7742V21.769C55.3325 25.2515 55.4088 27.4575 55.5614 28.3871C55.7279 29.3028 56.047 30.1838 56.5188 31.0302H52.6062C52.2177 30.2532 51.968 29.3444 51.857 28.3039Z" fill="white" stroke="black"/>
<path d="M62.0547 31.0302V11.8418H58.7456V8.9282H62.0547V6.57648C62.0547 5.09192 62.1865 3.9889 62.4501 3.26743C62.8108 2.29622 63.4421 1.51231 64.3439 0.915713C65.2597 0.305238 66.5361 0 68.1733 0C69.2278 0 70.3932 0.12487 71.6697 0.37461L71.1077 3.64204C70.3308 3.5033 69.5954 3.43392 68.9017 3.43392C67.764 3.43392 66.9593 3.67673 66.4875 4.16233C66.0158 4.64794 65.78 5.55671 65.78 6.88866V8.9282H70.088V11.8418H65.78V31.0302H62.0547Z" fill="white" stroke="black"/>
<path d="M81.2014 27.6795L81.7425 30.9886C80.688 31.2105 79.7446 31.3215 78.9121 31.3215C77.5524 31.3215 76.498 31.1065 75.7487 30.6764C74.9995 30.2463 74.4723 29.6844 74.1671 28.9906C73.8618 28.283 73.7092 26.8054 73.7092 24.5578V11.8418H70.9621V8.9282H73.7092V3.45473L77.4345 1.20708V8.9282H81.2014V11.8418H77.4345V24.7659C77.4345 25.8342 77.4969 26.521 77.6218 26.8262C77.7605 27.1315 77.9756 27.3743 78.2669 27.5546C78.5722 27.735 79.0023 27.8252 79.5573 27.8252C79.9735 27.8252 80.5215 27.7766 81.2014 27.6795Z" fill="white" stroke="black"/>
<path d="M85.9464 31.0302V26.7638H90.2128V31.0302H85.9464Z" fill="white" stroke="black"/>
<path d="M96.7269 4.86993V0.520291H100.473V4.86993H96.7269ZM91.9818 39.6046L92.6894 36.4204C93.4386 36.6146 94.0283 36.7118 94.4584 36.7118C95.2215 36.7118 95.7904 36.4551 96.165 35.9417C96.5396 35.4422 96.7269 34.1797 96.7269 32.154V8.9282H100.473V32.2373C100.473 34.9566 100.119 36.8505 99.4116 37.9188C98.5098 39.3063 97.0113 40 94.9163 40C93.9034 40 92.9253 39.8682 91.9818 39.6046Z" fill="white" stroke="black"/>
<path d="M104.739 24.4329L108.444 23.8502C108.652 25.3347 109.228 26.4724 110.171 27.2633C111.129 28.0541 112.46 28.4495 114.167 28.4495C115.887 28.4495 117.164 28.1027 117.996 27.4089C118.829 26.7014 119.245 25.8758 119.245 24.9324C119.245 24.086 118.877 23.42 118.142 22.9344C117.629 22.6015 116.352 22.1783 114.313 21.6649C111.566 20.9712 109.658 20.3746 108.59 19.8751C107.535 19.3618 106.73 18.6611 106.175 17.7732C105.634 16.8713 105.364 15.8793 105.364 14.7971C105.364 13.812 105.586 12.9032 106.03 12.0708C106.488 11.2244 107.105 10.5238 107.882 9.96878C108.465 9.53867 109.256 9.17794 110.254 8.88658C111.267 8.58134 112.349 8.42872 113.501 8.42872C115.235 8.42872 116.755 8.67846 118.059 9.17794C119.377 9.67742 120.348 10.3573 120.972 11.2175C121.597 12.0638 122.027 13.2015 122.263 14.6306L118.6 15.1301C118.433 13.9924 117.948 13.1044 117.143 12.4662C116.352 11.828 115.228 11.5088 113.772 11.5088C112.051 11.5088 110.823 11.7933 110.088 12.3621C109.353 12.931 108.985 13.5969 108.985 14.36C108.985 14.8456 109.138 15.2827 109.443 15.6712C109.748 16.0735 110.227 16.4065 110.879 16.6701C111.253 16.8089 112.356 17.128 114.188 17.6275C116.838 18.3351 118.683 18.9178 119.724 19.3757C120.778 19.8196 121.604 20.4717 122.2 21.3319C122.797 22.1922 123.095 23.2605 123.095 24.5369C123.095 25.7856 122.728 26.965 121.992 28.0749C121.271 29.171 120.223 30.0243 118.85 30.6348C117.476 31.2314 115.922 31.5297 114.188 31.5297C111.316 31.5297 109.124 30.9331 107.611 29.7399C106.113 28.5467 105.156 26.7777 104.739 24.4329Z" fill="white" stroke="black"/>
</svg>