<svg width="299" height="141" viewBox="0 0 299 141" fill="none" xmlns="http://www.w3.org/2000/svg">
<g clip-path="url(#clip0_5187_47063)">
<g filter="url(#filter0_d_5187_47063)">
<g clip-path="url(#clip1_5187_47063)">
<rect x="18" y="18" width="253.057" height="95.0298" rx="10.6775" fill="black"/>
<g filter="url(#filter1_d_5187_47063)">
<rect x="44.6934" y="39.8906" width="51.252" height="51.252" rx="25.626" fill="url(#paint0_linear_5187_47063)"/>
<rect x="45.2272" y="40.4245" width="50.1843" height="50.1843" rx="25.0921" stroke="white" stroke-opacity="0.05" stroke-width="1.06775"/>
<path d="M76.1833 62.9503L63.4877 70.6061C62.7403 71.0546 61.7793 70.5207 61.7793 69.6451V61.1031C61.7793 57.3767 65.8047 55.049 69.04 56.9069L73.941 59.7257L76.1726 61.007C76.9093 61.4448 76.92 62.5126 76.1833 62.9503Z" fill="white"/>
<path d="M76.825 69.2084L72.5006 71.7069L68.1869 74.1948C66.6387 75.081 64.8876 74.8995 63.6169 74.0026C62.9976 73.5755 63.0724 72.6252 63.7237 72.2408L77.2948 64.1045C77.9355 63.7202 78.779 64.0832 78.8964 64.8199C79.1634 66.475 78.48 68.2581 76.825 69.2084Z" fill="white"/>
</g>
<path d="M113.688 68.5341C112.168 68.5341 110.835 68.1241 109.69 67.304C108.546 66.4669 107.649 65.3137 107 63.8445C106.368 62.3582 106.051 60.6327 106.051 58.6681C106.051 56.6863 106.368 54.9608 107 53.4916C107.649 52.0224 108.537 50.8777 109.665 50.0577C110.809 49.2377 112.142 48.8277 113.662 48.8277C115.183 48.8277 116.507 49.2377 117.634 50.0577C118.779 50.8777 119.667 52.0309 120.3 53.5172C120.949 54.9865 121.273 56.7034 121.273 58.6681C121.273 60.6327 120.957 62.3582 120.325 63.8445C119.693 65.3137 118.805 66.4669 117.66 67.304C116.533 68.1241 115.209 68.5341 113.688 68.5341ZM113.688 65.7665C114.628 65.7665 115.439 65.476 116.122 64.8952C116.806 64.3143 117.335 63.4943 117.711 62.4351C118.087 61.3759 118.275 60.1202 118.275 58.6681C118.275 57.2159 118.087 55.9602 117.711 54.901C117.335 53.8418 116.806 53.0218 116.122 52.4409C115.439 51.8601 114.619 51.5696 113.662 51.5696C112.723 51.5696 111.911 51.8601 111.228 52.4409C110.545 53.0218 110.015 53.8418 109.639 54.901C109.263 55.9602 109.075 57.2159 109.075 58.6681C109.075 60.1031 109.263 61.3588 109.639 62.4351C110.015 63.4943 110.545 64.3143 111.228 64.8952C111.928 65.476 112.748 65.7665 113.688 65.7665ZM131.519 68.5341C129.999 68.5341 128.666 68.1241 127.521 67.304C126.377 66.4669 125.48 65.3137 124.831 63.8445C124.199 62.3582 123.883 60.6327 123.883 58.6681C123.883 56.6863 124.199 54.9608 124.831 53.4916C125.48 52.0224 126.368 50.8777 127.496 50.0577C128.64 49.2377 129.973 48.8277 131.494 48.8277C133.014 48.8277 134.338 49.2377 135.466 50.0577C136.61 50.8777 137.499 52.0309 138.131 53.5172C138.78 54.9865 139.104 56.7034 139.104 58.6681C139.104 60.6327 138.788 62.3582 138.156 63.8445C137.524 65.3137 136.636 66.4669 135.491 67.304C134.364 68.1241 133.04 68.5341 131.519 68.5341ZM131.519 65.7665C132.459 65.7665 133.27 65.476 133.954 64.8952C134.637 64.3143 135.167 63.4943 135.542 62.4351C135.918 61.3759 136.106 60.1202 136.106 58.6681C136.106 57.2159 135.918 55.9602 135.542 54.901C135.167 53.8418 134.637 53.0218 133.954 52.4409C133.27 51.8601 132.45 51.5696 131.494 51.5696C130.554 51.5696 129.742 51.8601 129.059 52.4409C128.376 53.0218 127.846 53.8418 127.47 54.901C127.094 55.9602 126.906 57.2159 126.906 58.6681C126.906 60.1031 127.094 61.3588 127.47 62.4351C127.846 63.4943 128.376 64.3143 129.059 64.8952C129.759 65.476 130.58 65.7665 131.519 65.7665ZM143.123 68.2266V64.8952H146.07V68.2266H143.123ZM143.123 57.6943V54.3629H146.07V57.6943H143.123ZM149.803 68.2266V66.0484L155.031 60.4619C156.056 59.3685 156.859 58.4887 157.44 57.8224C158.038 57.139 158.465 56.5411 158.721 56.0286C158.995 55.5161 159.131 54.9779 159.131 54.4141C159.131 53.4916 158.849 52.7826 158.286 52.2872C157.722 51.7747 156.996 51.5184 156.107 51.5184C155.185 51.5184 154.39 51.7832 153.724 52.3128C153.058 52.8253 152.597 53.577 152.34 54.5679L149.675 53.7991C149.88 52.7912 150.29 51.9199 150.905 51.1853C151.52 50.4336 152.272 49.8527 153.16 49.4427C154.066 49.0327 155.04 48.8277 156.082 48.8277C157.295 48.8277 158.354 49.0583 159.259 49.5196C160.165 49.9637 160.865 50.5873 161.361 51.3903C161.873 52.1932 162.129 53.1243 162.129 54.1835C162.129 54.8839 161.993 55.5673 161.719 56.2336C161.463 56.8828 161.062 57.5747 160.515 58.3093C159.968 59.0268 159.268 59.8383 158.414 60.7438L153.801 65.664H162.488V68.2266H149.803ZM165.247 68.2266L173.396 51.6978H164.222V49.1352H176.548V51.6978L168.527 68.2266H165.247ZM179.975 68.2266V64.8952H182.922V68.2266H179.975ZM179.975 57.6943V54.3629H182.922V57.6943H179.975ZM193.036 68.5341C192.028 68.5341 191.079 68.3547 190.191 67.9959C189.303 67.6201 188.534 67.099 187.885 66.4327C187.236 65.7665 186.774 64.9635 186.501 64.0239L189.038 63.0501C189.363 63.9556 189.892 64.6475 190.627 65.1258C191.361 65.6042 192.164 65.8433 193.036 65.8433C193.753 65.8433 194.385 65.681 194.932 65.3564C195.479 65.0319 195.906 64.5877 196.213 64.0239C196.538 63.4601 196.7 62.8195 196.7 62.1019C196.7 61.3673 196.538 60.7267 196.213 60.18C195.906 59.6162 195.479 59.1806 194.932 58.8731C194.385 58.5485 193.753 58.3862 193.036 58.3862C192.318 58.3862 191.66 58.5485 191.062 58.8731C190.464 59.1977 190.029 59.6333 189.755 60.18L187.321 59.6418L188.807 49.1352H198.981V51.6978H189.986L191.139 50.4421L190.037 58.4887L189.089 57.848C189.602 57.1305 190.225 56.6094 190.96 56.2848C191.695 55.9602 192.532 55.7979 193.471 55.7979C194.718 55.7979 195.803 56.0798 196.726 56.6436C197.665 57.1903 198.391 57.942 198.904 58.8987C199.434 59.8383 199.698 60.9061 199.698 62.1019C199.698 63.3149 199.408 64.4083 198.827 65.3821C198.246 66.3559 197.452 67.1246 196.444 67.6884C195.453 68.2522 194.317 68.5341 193.036 68.5341ZM209.827 68.5341C208.306 68.5341 206.974 68.1241 205.829 67.304C204.684 66.4669 203.787 65.3137 203.138 63.8445C202.506 62.3582 202.19 60.6327 202.19 58.6681C202.19 56.6863 202.506 54.9608 203.138 53.4916C203.787 52.0224 204.676 50.8777 205.803 50.0577C206.948 49.2377 208.281 48.8277 209.801 48.8277C211.322 48.8277 212.646 49.2377 213.773 50.0577C214.918 50.8777 215.806 52.0309 216.438 53.5172C217.087 54.9865 217.412 56.7034 217.412 58.6681C217.412 60.6327 217.096 62.3582 216.464 63.8445C215.832 65.3137 214.943 66.4669 213.799 67.304C212.671 68.1241 211.347 68.5341 209.827 68.5341ZM209.827 65.7665C210.766 65.7665 211.578 65.476 212.261 64.8952C212.944 64.3143 213.474 63.4943 213.85 62.4351C214.226 61.3759 214.414 60.1202 214.414 58.6681C214.414 57.2159 214.226 55.9602 213.85 54.901C213.474 53.8418 212.944 53.0218 212.261 52.4409C211.578 51.8601 210.758 51.5696 209.801 51.5696C208.861 51.5696 208.05 51.8601 207.367 52.4409C206.683 53.0218 206.154 53.8418 205.778 54.901C205.402 55.9602 205.214 57.2159 205.214 58.6681C205.214 60.1031 205.402 61.3588 205.778 62.4351C206.154 63.4943 206.683 64.3143 207.367 64.8952C208.067 65.476 208.887 65.7665 209.827 65.7665ZM220.102 68.2266V66.4327H221.552V68.2266H220.102ZM220.102 61.9631V60.1693H221.552V61.9631H220.102ZM227.388 68.4059C226.81 68.4059 226.267 68.3063 225.759 68.107C225.25 67.8977 224.807 67.6037 224.428 67.225C224.059 66.8364 223.79 66.3829 223.621 65.8647L224.817 65.3564C225.026 65.9046 225.365 66.3331 225.833 66.642C226.312 66.941 226.83 67.0905 227.388 67.0905C227.846 67.0905 228.25 66.9908 228.599 66.7915C228.958 66.5822 229.237 66.2982 229.436 65.9394C229.635 65.5707 229.735 65.1621 229.735 64.7137C229.735 64.2453 229.63 63.8317 229.421 63.4729C229.222 63.1142 228.948 62.8351 228.599 62.6358C228.25 62.4265 227.851 62.3219 227.403 62.3219C226.945 62.3219 226.526 62.4265 226.147 62.6358C225.769 62.8451 225.495 63.1092 225.325 63.4281L224.144 63.174L224.996 57.0899H230.766V58.3605H225.549L226.117 57.7925L225.46 62.5162L224.951 62.2173C225.28 61.7987 225.664 61.4997 226.102 61.3203C226.551 61.131 227.034 61.0363 227.552 61.0363C228.28 61.0363 228.918 61.2008 229.466 61.5296C230.014 61.8585 230.442 62.297 230.751 62.8451C231.06 63.3932 231.215 64.0161 231.215 64.7137C231.215 65.4113 231.045 66.0391 230.707 66.5972C230.378 67.1553 229.924 67.5987 229.346 67.9276C228.778 68.2465 228.125 68.4059 227.388 68.4059ZM236.3 68.4059C235.722 68.4059 235.179 68.3063 234.671 68.107C234.163 67.8977 233.719 67.6037 233.341 67.225C232.972 66.8364 232.703 66.3829 232.533 65.8647L233.729 65.3564C233.939 65.9046 234.277 66.3331 234.746 66.642C235.224 66.941 235.742 67.0905 236.3 67.0905C236.759 67.0905 237.163 66.9908 237.511 66.7915C237.87 66.5822 238.149 66.2982 238.348 65.9394C238.548 65.5707 238.647 65.1621 238.647 64.7137C238.647 64.2453 238.543 63.8317 238.333 63.4729C238.134 63.1142 237.86 62.8351 237.511 62.6358C237.163 62.4265 236.764 62.3219 236.315 62.3219C235.857 62.3219 235.438 62.4265 235.06 62.6358C234.681 62.8451 234.407 63.1092 234.238 63.4281L233.057 63.174L233.909 57.0899H239.679V58.3605H234.462L235.03 57.7925L234.372 62.5162L233.864 62.2173C234.193 61.7987 234.576 61.4997 235.015 61.3203C235.463 61.131 235.947 61.0363 236.465 61.0363C237.192 61.0363 237.83 61.2008 238.378 61.5296C238.926 61.8585 239.355 62.297 239.664 62.8451C239.973 63.3932 240.127 64.0161 240.127 64.7137C240.127 65.4113 239.958 66.0391 239.619 66.5972C239.29 67.1553 238.837 67.5987 238.259 67.9276C237.691 68.2465 237.038 68.4059 236.3 68.4059Z" fill="white"/>
<path d="M108.707 84.0411C108.201 84.0411 107.727 83.9514 107.285 83.772C106.843 83.5862 106.455 83.3268 106.122 82.9936C105.795 82.6605 105.539 82.2697 105.353 81.8212C105.167 81.3664 105.074 80.8731 105.074 80.3413C105.074 79.8032 105.167 79.3099 105.353 78.8614C105.539 78.413 105.795 78.0222 106.122 77.689C106.455 77.3559 106.839 77.0996 107.275 76.9203C107.717 76.7409 108.194 76.6512 108.707 76.6512C109.219 76.6512 109.694 76.7441 110.129 76.9299C110.571 77.1093 110.956 77.3655 111.282 77.6987C111.616 78.0254 111.875 78.413 112.061 78.8614C112.253 79.3099 112.349 79.8032 112.349 80.3413C112.349 80.8731 112.253 81.3664 112.061 81.8212C111.875 82.2697 111.616 82.6605 111.282 82.9936C110.956 83.3268 110.571 83.5862 110.129 83.772C109.694 83.9514 109.219 84.0411 108.707 84.0411ZM108.707 83.1666C109.104 83.1666 109.466 83.0961 109.793 82.9552C110.12 82.8078 110.401 82.606 110.639 82.3498C110.882 82.0871 111.068 81.786 111.196 81.4465C111.33 81.1005 111.398 80.7321 111.398 80.3413C111.398 79.9505 111.33 79.5854 111.196 79.2458C111.068 78.9063 110.882 78.6084 110.639 78.3521C110.401 78.0895 110.12 77.8876 109.793 77.7467C109.466 77.5994 109.104 77.5257 108.707 77.5257C108.316 77.5257 107.957 77.5994 107.631 77.7467C107.304 77.8876 107.019 78.0895 106.775 78.3521C106.538 78.6084 106.353 78.9063 106.218 79.2458C106.084 79.5854 106.016 79.9505 106.016 80.3413C106.016 80.7321 106.084 81.1005 106.218 81.4465C106.353 81.786 106.538 82.0871 106.775 82.3498C107.019 82.606 107.304 82.8078 107.631 82.9552C107.957 83.0961 108.316 83.1666 108.707 83.1666ZM113.425 83.9258V78.7461H114.299V79.7551L114.155 79.6687C114.283 79.3419 114.488 79.0889 114.77 78.9095C115.058 78.7237 115.395 78.6308 115.779 78.6308C116.151 78.6308 116.481 78.7141 116.769 78.8807C117.064 79.0472 117.294 79.2779 117.461 79.5726C117.634 79.8673 117.72 80.2004 117.72 80.572V83.9258H116.817V80.8603C116.817 80.572 116.766 80.3285 116.663 80.1299C116.561 79.9313 116.413 79.7776 116.221 79.6687C116.035 79.5533 115.821 79.4957 115.577 79.4957C115.334 79.4957 115.116 79.5533 114.924 79.6687C114.738 79.7776 114.591 79.9345 114.482 80.1395C114.373 80.3381 114.318 80.5784 114.318 80.8603V83.9258H113.425ZM122.38 83.9834C121.874 83.9834 121.483 83.8393 121.208 83.551C120.939 83.2627 120.804 82.8559 120.804 82.3306V79.6014H119.863V78.7461H120.055C120.285 78.7461 120.468 78.6756 120.602 78.5347C120.737 78.3938 120.804 78.208 120.804 77.9773V77.5545H121.698V78.7461H122.861V79.6014H121.698V82.3017C121.698 82.4747 121.724 82.6253 121.775 82.7534C121.833 82.8815 121.925 82.984 122.054 83.0609C122.182 83.1314 122.351 83.1666 122.563 83.1666C122.608 83.1666 122.662 83.1634 122.726 83.157C122.797 83.1506 122.861 83.1442 122.918 83.1378V83.9258C122.835 83.945 122.742 83.9578 122.64 83.9642C122.537 83.977 122.451 83.9834 122.38 83.9834ZM123.894 83.9258V76.6512H124.787V79.7551L124.624 79.6687C124.752 79.3419 124.957 79.0889 125.239 78.9095C125.527 78.7237 125.864 78.6308 126.248 78.6308C126.62 78.6308 126.95 78.7141 127.238 78.8807C127.533 79.0472 127.763 79.2779 127.93 79.5726C128.103 79.8673 128.189 80.2004 128.189 80.572V83.9258H127.286V80.8603C127.286 80.572 127.231 80.3285 127.123 80.1299C127.02 79.9313 126.876 79.7776 126.69 79.6687C126.504 79.5533 126.29 79.4957 126.046 79.4957C125.809 79.4957 125.595 79.5533 125.402 79.6687C125.21 79.7776 125.06 79.9345 124.951 80.1395C124.842 80.3381 124.787 80.5784 124.787 80.8603V83.9258H123.894ZM129.276 83.9258V78.7461H130.17V83.9258H129.276ZM129.276 77.9197V76.7665H130.17V77.9197H129.276ZM133.219 84.0411C132.7 84.0411 132.248 83.913 131.864 83.6567C131.479 83.4004 131.207 83.0545 131.047 82.6189L131.758 82.2729C131.905 82.5804 132.107 82.8239 132.364 83.0032C132.62 83.1826 132.905 83.2723 133.219 83.2723C133.501 83.2723 133.735 83.205 133.92 83.0705C134.106 82.936 134.199 82.7598 134.199 82.542C134.199 82.3882 134.154 82.2665 134.064 82.1768C133.981 82.0807 133.879 82.007 133.757 81.9558C133.635 81.8981 133.523 81.8565 133.421 81.8309L132.642 81.6098C132.175 81.4753 131.832 81.2831 131.614 81.0332C131.403 80.7834 131.297 80.4919 131.297 80.1588C131.297 79.8512 131.374 79.5854 131.528 79.3611C131.688 79.1305 131.902 78.9511 132.171 78.823C132.447 78.6949 132.754 78.6308 133.094 78.6308C133.549 78.6308 133.956 78.7461 134.314 78.9768C134.68 79.2074 134.939 79.5309 135.093 79.9473L134.362 80.2837C134.247 80.0146 134.074 79.8032 133.843 79.6494C133.613 79.4893 133.353 79.4092 133.065 79.4092C132.802 79.4092 132.594 79.4765 132.44 79.611C132.287 79.7391 132.21 79.9025 132.21 80.1011C132.21 80.2484 132.248 80.3702 132.325 80.4663C132.402 80.556 132.495 80.6264 132.604 80.6777C132.713 80.7225 132.818 80.761 132.921 80.793L133.767 81.0429C134.189 81.1646 134.516 81.3536 134.747 81.6098C134.984 81.8661 135.102 82.1736 135.102 82.5324C135.102 82.8207 135.022 83.0801 134.862 83.3108C134.702 83.5414 134.481 83.7208 134.199 83.8489C133.917 83.977 133.59 84.0411 133.219 84.0411ZM139.404 84.0411C138.885 84.0411 138.433 83.913 138.049 83.6567C137.664 83.4004 137.392 83.0545 137.232 82.6189L137.943 82.2729C138.09 82.5804 138.292 82.8239 138.548 83.0032C138.805 83.1826 139.09 83.2723 139.404 83.2723C139.685 83.2723 139.919 83.205 140.105 83.0705C140.291 82.936 140.384 82.7598 140.384 82.542C140.384 82.3882 140.339 82.2665 140.249 82.1768C140.166 82.0807 140.063 82.007 139.942 81.9558C139.82 81.8981 139.708 81.8565 139.605 81.8309L138.827 81.6098C138.359 81.4753 138.017 81.2831 137.799 81.0332C137.587 80.7834 137.482 80.4919 137.482 80.1588C137.482 79.8512 137.559 79.5854 137.712 79.3611C137.872 79.1305 138.087 78.9511 138.356 78.823C138.632 78.6949 138.939 78.6308 139.279 78.6308C139.734 78.6308 140.14 78.7461 140.499 78.9768C140.864 79.2074 141.124 79.5309 141.278 79.9473L140.547 80.2837C140.432 80.0146 140.259 79.8032 140.028 79.6494C139.798 79.4893 139.538 79.4092 139.25 79.4092C138.987 79.4092 138.779 79.4765 138.625 79.611C138.471 79.7391 138.395 79.9025 138.395 80.1011C138.395 80.2484 138.433 80.3702 138.51 80.4663C138.587 80.556 138.68 80.6264 138.789 80.6777C138.897 80.7225 139.003 80.761 139.106 80.793L139.951 81.0429C140.374 81.1646 140.701 81.3536 140.932 81.6098C141.169 81.8661 141.287 82.1736 141.287 82.5324C141.287 82.8207 141.207 83.0801 141.047 83.3108C140.887 83.5414 140.666 83.7208 140.384 83.8489C140.102 83.977 139.775 84.0411 139.404 84.0411ZM142.265 83.9258V78.7461H143.159V83.9258H142.265ZM142.265 77.9197V76.7665H143.159V77.9197H142.265ZM146.458 83.9834C145.952 83.9834 145.561 83.8393 145.285 83.551C145.016 83.2627 144.882 82.8559 144.882 82.3306V79.6014H143.94V78.7461H144.132C144.363 78.7461 144.545 78.6756 144.68 78.5347C144.814 78.3938 144.882 78.208 144.882 77.9773V77.5545H145.775V78.7461H146.938V79.6014H145.775V82.3017C145.775 82.4747 145.801 82.6253 145.852 82.7534C145.91 82.8815 146.003 82.984 146.131 83.0609C146.259 83.1314 146.429 83.1666 146.64 83.1666C146.685 83.1666 146.74 83.1634 146.804 83.157C146.874 83.1506 146.938 83.1442 146.996 83.1378V83.9258C146.912 83.945 146.82 83.9578 146.717 83.9642C146.615 83.977 146.528 83.9834 146.458 83.9834ZM150.213 84.0411C149.714 84.0411 149.269 83.9226 148.878 83.6855C148.487 83.4485 148.179 83.125 147.955 82.715C147.731 82.2985 147.619 81.8341 147.619 81.3215C147.619 80.8026 147.728 80.3413 147.946 79.9377C148.17 79.5341 148.471 79.217 148.849 78.9864C149.233 78.7493 149.663 78.6308 150.137 78.6308C150.521 78.6308 150.861 78.7013 151.155 78.8422C151.456 78.9768 151.709 79.1625 151.914 79.3996C152.126 79.6302 152.286 79.8961 152.395 80.1972C152.51 80.4919 152.568 80.7994 152.568 81.1197C152.568 81.1902 152.561 81.2703 152.549 81.36C152.542 81.4433 152.533 81.5233 152.52 81.6002H148.272V80.8314H152.001L151.578 81.1774C151.636 80.8443 151.604 80.5463 151.482 80.2837C151.36 80.021 151.181 79.8128 150.944 79.659C150.707 79.5053 150.438 79.4284 150.137 79.4284C149.835 79.4284 149.56 79.5053 149.31 79.659C149.06 79.8128 148.865 80.0338 148.724 80.3221C148.589 80.604 148.535 80.9403 148.561 81.3311C148.535 81.7091 148.593 82.0423 148.734 82.3306C148.881 82.6124 149.086 82.8335 149.349 82.9936C149.618 83.1474 149.909 83.2243 150.223 83.2243C150.569 83.2243 150.861 83.1442 151.098 82.984C151.335 82.8239 151.527 82.6189 151.674 82.369L152.424 82.7534C152.321 82.9904 152.161 83.2083 151.943 83.4069C151.732 83.599 151.479 83.7528 151.184 83.8681C150.896 83.9834 150.572 84.0411 150.213 84.0411ZM155.375 83.9258V82.7726H156.307V83.9258H155.375ZM155.375 79.8993V78.7461H156.307V79.8993H155.375Z" fill="white" fill-opacity="0.5"/>
<path d="M163.209 84.0411C162.639 84.0411 162.139 83.8873 161.71 83.5798C161.287 83.2659 160.957 82.8335 160.72 82.2825C160.483 81.7251 160.365 81.0781 160.365 80.3413C160.365 79.6046 160.483 78.9607 160.72 78.4098C160.957 77.8524 161.287 77.42 161.71 77.1125C162.133 76.8049 162.629 76.6512 163.199 76.6512C163.77 76.6512 164.266 76.8049 164.689 77.1125C165.112 77.42 165.442 77.8524 165.679 78.4098C165.922 78.9607 166.044 79.6046 166.044 80.3413C166.044 81.0781 165.925 81.7251 165.688 82.2825C165.451 82.8399 165.118 83.2723 164.689 83.5798C164.266 83.8873 163.773 84.0411 163.209 84.0411ZM163.209 83.1666C163.593 83.1666 163.927 83.0513 164.208 82.8207C164.49 82.5836 164.708 82.2537 164.862 81.8309C165.022 81.408 165.102 80.9115 165.102 80.3413C165.102 79.7712 165.022 79.2747 164.862 78.8518C164.708 78.429 164.487 78.1023 164.199 77.8716C163.917 77.641 163.584 77.5257 163.199 77.5257C162.815 77.5257 162.482 77.641 162.2 77.8716C161.918 78.1023 161.697 78.429 161.537 78.8518C161.383 79.2747 161.306 79.7712 161.306 80.3413C161.306 80.9051 161.383 81.3984 161.537 81.8212C161.697 82.2441 161.918 82.574 162.2 82.811C162.488 83.0481 162.825 83.1666 163.209 83.1666ZM170.413 83.9258V82.2729H166.896V81.4945L170.394 76.7665H171.297V81.4945H172.229V82.2729H171.297V83.9258H170.413ZM167.607 81.8309L167.472 81.4945H170.413V77.5545L170.692 77.6314L167.607 81.8309ZM173.475 83.9258V82.7726H174.408V83.9258H173.475ZM173.475 79.8993V78.7461H174.408V79.8993H173.475ZM178.764 84.0411C178.194 84.0411 177.695 83.8873 177.265 83.5798C176.843 83.2659 176.513 82.8335 176.276 82.2825C176.038 81.7251 175.92 81.0781 175.92 80.3413C175.92 79.6046 176.038 78.9607 176.276 78.4098C176.513 77.8524 176.843 77.42 177.265 77.1125C177.688 76.8049 178.185 76.6512 178.755 76.6512C179.325 76.6512 179.822 76.8049 180.244 77.1125C180.667 77.42 180.997 77.8524 181.234 78.4098C181.478 78.9607 181.599 79.6046 181.599 80.3413C181.599 81.0781 181.481 81.7251 181.244 82.2825C181.007 82.8399 180.674 83.2723 180.244 83.5798C179.822 83.8873 179.328 84.0411 178.764 84.0411ZM178.764 83.1666C179.149 83.1666 179.482 83.0513 179.764 82.8207C180.046 82.5836 180.264 82.2537 180.417 81.8309C180.578 81.408 180.658 80.9115 180.658 80.3413C180.658 79.7712 180.578 79.2747 180.417 78.8518C180.264 78.429 180.043 78.1023 179.754 77.8716C179.472 77.641 179.139 77.5257 178.755 77.5257C178.37 77.5257 178.037 77.641 177.755 77.8716C177.474 78.1023 177.253 78.429 177.092 78.8518C176.939 79.2747 176.862 79.7712 176.862 80.3413C176.862 80.9051 176.939 81.3984 177.092 81.8212C177.253 82.2441 177.474 82.574 177.755 82.811C178.044 83.0481 178.38 83.1666 178.764 83.1666ZM185.968 83.9258V82.2729H182.451V81.4945L185.949 76.7665H186.852V81.4945H187.785V82.2729H186.852V83.9258H185.968ZM183.162 81.8309L183.028 81.4945H185.968V77.5545L186.247 77.6314L183.162 81.8309ZM189.031 83.9258V82.7726H189.963V83.9258H189.031ZM189.031 79.8993V78.7461H189.963V79.8993H189.031ZM193.714 84.0411C193.343 84.0411 192.994 83.977 192.667 83.8489C192.34 83.7144 192.055 83.5254 191.812 83.2819C191.575 83.0321 191.402 82.7406 191.293 82.4074L192.062 82.0807C192.196 82.4331 192.414 82.7085 192.715 82.9071C193.023 83.0993 193.356 83.1954 193.714 83.1954C194.009 83.1954 194.269 83.1314 194.493 83.0032C194.723 82.8687 194.903 82.6861 195.031 82.4555C195.159 82.2184 195.223 81.9558 195.223 81.6675C195.223 81.3664 195.156 81.1005 195.021 80.8699C194.893 80.6392 194.717 80.4599 194.493 80.3317C194.269 80.1972 194.012 80.1299 193.724 80.1299C193.429 80.1299 193.16 80.1972 192.917 80.3317C192.673 80.4663 192.497 80.636 192.388 80.841L191.629 80.6777L192.177 76.7665H195.886V77.5833H192.532L192.898 77.2182L192.475 80.2549L192.148 80.0627C192.359 79.7936 192.606 79.6014 192.888 79.4861C193.176 79.3643 193.487 79.3035 193.82 79.3035C194.288 79.3035 194.698 79.4092 195.05 79.6206C195.403 79.832 195.678 80.1139 195.877 80.4663C196.075 80.8186 196.175 81.219 196.175 81.6675C196.175 82.1159 196.066 82.5196 195.848 82.8783C195.636 83.2371 195.345 83.5222 194.973 83.7336C194.608 83.9386 194.189 84.0411 193.714 84.0411ZM199.444 84.0411C199.072 84.0411 198.723 83.977 198.396 83.8489C198.07 83.7144 197.785 83.5254 197.541 83.2819C197.304 83.0321 197.131 82.7406 197.022 82.4074L197.791 82.0807C197.926 82.4331 198.143 82.7085 198.445 82.9071C198.752 83.0993 199.085 83.1954 199.444 83.1954C199.739 83.1954 199.998 83.1314 200.222 83.0032C200.453 82.8687 200.632 82.6861 200.76 82.4555C200.889 82.2184 200.953 81.9558 200.953 81.6675C200.953 81.3664 200.885 81.1005 200.751 80.8699C200.623 80.6392 200.447 80.4599 200.222 80.3317C199.998 80.1972 199.742 80.1299 199.454 80.1299C199.159 80.1299 198.89 80.1972 198.646 80.3317C198.403 80.4663 198.227 80.636 198.118 80.841L197.359 80.6777L197.906 76.7665H201.616V77.5833H198.262L198.627 77.2182L198.204 80.2549L197.878 80.0627C198.089 79.7936 198.336 79.6014 198.617 79.4861C198.906 79.3643 199.216 79.3035 199.55 79.3035C200.017 79.3035 200.427 79.4092 200.78 79.6206C201.132 79.832 201.408 80.1139 201.606 80.4663C201.805 80.8186 201.904 81.219 201.904 81.6675C201.904 82.1159 201.795 82.5196 201.577 82.8783C201.366 83.2371 201.074 83.5222 200.703 83.7336C200.338 83.9386 199.918 84.0411 199.444 84.0411Z" fill="white"/>
<path d="M243.029 30.5444V27.875H240.359" stroke="#B1B1B1" stroke-width="0.533875" stroke-linecap="round" stroke-linejoin="round"/>
<path d="M235.02 33.2109V35.8803H237.689" stroke="#B1B1B1" stroke-width="0.533875" stroke-linecap="round" stroke-linejoin="round"/>
<path d="M243.028 27.875L239.691 31.2117" stroke="#B1B1B1" stroke-width="0.533875" stroke-linecap="round" stroke-linejoin="round"/>
<path d="M238.356 32.5469L235.02 35.8836" stroke="#B1B1B1" stroke-width="0.533875" stroke-linecap="round" stroke-linejoin="round"/>
<path d="M259.49 34.8542L254.205 29.5691C254.024 29.3885 254.024 29.089 254.205 28.9084C254.385 28.7279 254.685 28.7279 254.865 28.9084L260.151 34.1935C260.331 34.3741 260.331 34.6736 260.151 34.8542C259.97 35.0348 259.671 35.0348 259.49 34.8542Z" fill="#B1B1B1"/>
<path d="M254.205 34.8542C254.024 34.6736 254.024 34.3741 254.205 34.1935L259.49 28.9084C259.671 28.7279 259.97 28.7279 260.151 28.9084C260.331 29.089 260.331 29.3885 260.151 29.5691L254.866 34.8542C254.685 35.0348 254.385 35.0348 254.205 34.8542Z" fill="#B1B1B1"/>
</g>
<rect x="18.5339" y="18.5339" width="251.989" height="93.9621" rx="10.1436" stroke="white" stroke-opacity="0.1" stroke-width="1.06775"/>
</g>
</g>
<rect x="2" y="2" width="285.057" height="127.03" stroke="#626CCE" stroke-width="4" stroke-linecap="round" stroke-linejoin="round" stroke-dasharray="16 16"/>
<g clip-path="url(#clip2_5187_47063)">
<path fill-rule="evenodd" clip-rule="evenodd" d="M279.511 127.171L287.655 135.307L281.997 140.963L298.943 140.937L298.969 123.997L293.287 129.681L285.137 121.545L282.309 118.715L287.997 113.031H271.025V129.999L276.685 124.345L279.511 127.171Z" fill="white"/>
<path fill-rule="evenodd" clip-rule="evenodd" d="M281.631 126.465L290.485 135.313L286.829 138.969L296.941 138.937L296.969 128.829L293.285 132.511L284.429 123.667L279.481 118.717L283.169 115.031H273.023V125.173L276.683 121.517L281.631 126.465Z" fill="black"/>
</g>
<defs>
<filter id="filter0_d_5187_47063" x="-18.3035" y="-3.35502" width="325.664" height="167.638" filterUnits="userSpaceOnUse" color-interpolation-filters="sRGB">
<feFlood flood-opacity="0" result="BackgroundImageFix"/>
<feColorMatrix in="SourceAlpha" type="matrix" values="0 0 0 0 0 0 0 0 0 0 0 0 0 0 0 0 0 0 127 0" result="hardAlpha"/>
<feOffset dy="14.9485"/>
<feGaussianBlur stdDeviation="18.1518"/>
<feComposite in2="hardAlpha" operator="out"/>
<feColorMatrix type="matrix" values="0 0 0 0 1 0 0 0 0 1 0 0 0 0 1 0 0 0 0.1 0"/>
<feBlend mode="normal" in2="BackgroundImageFix" result="effect1_dropShadow_5187_47063"/>
<feBlend mode="normal" in="SourceGraphic" in2="effect1_dropShadow_5187_47063" result="shape"/>
</filter>
<filter id="filter1_d_5187_47063" x="-6.23836" y="3.90742" width="153.115" height="153.117" filterUnits="userSpaceOnUse" color-interpolation-filters="sRGB">
<feFlood flood-opacity="0" result="BackgroundImageFix"/>
<feColorMatrix in="SourceAlpha" type="matrix" values="0 0 0 0 0 0 0 0 0 0 0 0 0 0 0 0 0 0 127 0" result="hardAlpha"/>
<feOffset dy="14.9485"/>
<feGaussianBlur stdDeviation="25.4659"/>
<feComposite in2="hardAlpha" operator="out"/>
<feColorMatrix type="matrix" values="0 0 0 0 0 0 0 0 0 0 0 0 0 0 0 0 0 0 0.2 0"/>
<feBlend mode="normal" in2="BackgroundImageFix" result="effect1_dropShadow_5187_47063"/>
<feBlend mode="normal" in="SourceGraphic" in2="effect1_dropShadow_5187_47063" result="shape"/>
</filter>
<linearGradient id="paint0_linear_5187_47063" x1="48.1102" y1="46.4395" x2="88.2576" y2="76.6213" gradientUnits="userSpaceOnUse">
<stop stop-color="#3826A6"/>
<stop offset="1" stop-color="#A11DB1"/>
</linearGradient>
<clipPath id="clip0_5187_47063">
<rect x="2" y="2" width="285.057" height="127.03" fill="white"/>
</clipPath>
<clipPath id="clip1_5187_47063">
<rect x="18" y="18" width="253.057" height="95.0298" rx="10.6775" fill="white"/>
</clipPath>
<clipPath id="clip2_5187_47063">
<rect width="28" height="28" fill="white" transform="matrix(-1 0 0 1 299 113)"/>
</clipPath>
</defs>
</svg>
