<svg width="173" height="99" viewBox="0 0 173 99" fill="none" xmlns="http://www.w3.org/2000/svg">
<g clip-path="url(#clip0_5187_47062)">
<g filter="url(#filter0_d_5187_47062)">
<rect x="18" y="18" width="125" height="53" rx="4.608" fill="url(#paint0_linear_5187_47062)"/>
<rect x="18.4608" y="18.4608" width="124.078" height="52.0784" rx="4.1472" stroke="black" stroke-opacity="0.05" stroke-width="0.9216"/>
<path d="M61.7987 37.0943L51.4654 30.9188C48.8999 29.3656 45.7999 29.3656 43.2344 30.9188C40.6689 32.4719 39.1367 35.2084 39.1367 38.3147V50.7028C39.1367 53.7721 40.6689 56.5456 43.2344 58.0987C44.5172 58.8753 45.9424 59.2451 47.3321 59.2451C48.7574 59.2451 50.147 58.8753 51.4298 58.0987L61.7631 51.9232C64.3286 50.37 65.8607 47.6335 65.8607 44.5272C65.932 41.421 64.3998 38.6475 61.7987 37.0943Z" fill="white"/>
<path d="M83.3945 40.7756C83.3188 40.1032 83.0063 39.5824 82.457 39.2131C81.9078 38.839 81.2165 38.652 80.3832 38.652C79.7866 38.652 79.2705 38.7467 78.8349 38.9361C78.3993 39.1207 78.0607 39.3764 77.8192 39.7031C77.5825 40.0251 77.4641 40.392 77.4641 40.804C77.4641 41.1496 77.5446 41.4479 77.7056 41.6989C77.8713 41.9498 78.0868 42.1605 78.3519 42.331C78.6218 42.4967 78.9106 42.6364 79.2184 42.75C79.5262 42.8589 79.8221 42.9489 80.1062 43.0199L81.5266 43.3892C81.9906 43.5028 82.4665 43.6567 82.9542 43.8509C83.4419 44.045 83.8941 44.3007 84.3107 44.6179C84.7274 44.9351 85.0636 45.3281 85.3192 45.7969C85.5797 46.2656 85.7099 46.8267 85.7099 47.4801C85.7099 48.304 85.4968 49.0355 85.0707 49.6747C84.6493 50.3139 84.0361 50.8182 83.2312 51.1875C82.431 51.5568 81.4627 51.7415 80.3263 51.7415C79.2373 51.7415 78.2951 51.5687 77.4996 51.223C76.7042 50.8774 76.0816 50.3873 75.6317 49.7528C75.1819 49.1136 74.9334 48.3561 74.886 47.4801H77.0877C77.1303 48.0057 77.3008 48.4437 77.5991 48.794C77.9021 49.1397 78.288 49.3977 78.7567 49.5682C79.2302 49.7339 79.7487 49.8168 80.3121 49.8168C80.9324 49.8168 81.484 49.7197 81.967 49.5256C82.4547 49.3267 82.8382 49.0521 83.1175 48.7017C83.3969 48.3466 83.5366 47.9323 83.5366 47.4588C83.5366 47.0279 83.4135 46.6752 83.1673 46.4006C82.9258 46.1259 82.5967 45.8987 82.18 45.7188C81.7681 45.5388 81.3017 45.3802 80.7809 45.2429L79.0621 44.7741C77.8974 44.4569 76.9741 43.9905 76.2923 43.375C75.6152 42.7595 75.2766 41.9451 75.2766 40.9318C75.2766 40.0937 75.5039 39.3622 75.9585 38.7372C76.413 38.1122 77.0285 37.6269 77.805 37.2812C78.5816 36.9309 79.4575 36.7557 80.4329 36.7557C81.4177 36.7557 82.2866 36.9285 83.0394 37.2741C83.797 37.6198 84.3936 38.0956 84.8292 38.7017C85.2648 39.303 85.4921 39.9943 85.511 40.7756H83.3945ZM93.2543 40.5909V42.2955H87.2955V40.5909H93.2543ZM88.8935 37.9773H91.017V48.2969C91.017 48.7088 91.0786 49.0189 91.2017 49.2273C91.3248 49.4309 91.4834 49.5705 91.6776 49.6463C91.8764 49.7173 92.0919 49.7528 92.3239 49.7528C92.4943 49.7528 92.6435 49.741 92.7713 49.7173C92.8991 49.6937 92.9986 49.6747 93.0696 49.6605L93.4531 51.4148C93.33 51.4621 93.1548 51.5095 92.9276 51.5568C92.7003 51.6089 92.4162 51.6373 92.0753 51.642C91.5166 51.6515 90.9957 51.5521 90.5128 51.3438C90.0298 51.1354 89.6392 50.8134 89.3409 50.3778C89.0426 49.9422 88.8935 49.3954 88.8935 48.7372V37.9773ZM98.7781 51.7415C98.0868 51.7415 97.4618 51.6136 96.9031 51.358C96.3443 51.0975 95.9016 50.7211 95.5749 50.2287C95.253 49.7363 95.092 49.1326 95.092 48.4176C95.092 47.8021 95.2103 47.2955 95.4471 46.8977C95.6838 46.5 96.0034 46.1851 96.4059 45.9531C96.8084 45.7211 97.2582 45.5459 97.7553 45.4276C98.2525 45.3092 98.7591 45.2192 99.2752 45.1577C99.9286 45.0819 100.459 45.0204 100.866 44.973C101.273 44.9209 101.569 44.8381 101.754 44.7244C101.939 44.6108 102.031 44.4261 102.031 44.1705V44.1207C102.031 43.5005 101.856 43.0199 101.505 42.679C101.16 42.3381 100.644 42.1676 99.957 42.1676C99.2421 42.1676 98.6786 42.3262 98.2667 42.6435C97.8595 42.956 97.5778 43.304 97.4215 43.6875L95.4258 43.233C95.6625 42.5701 96.0082 42.035 96.4627 41.6278C96.922 41.2159 97.4499 40.9176 98.0465 40.733C98.6431 40.5436 99.2705 40.4489 99.9286 40.4489C100.364 40.4489 100.826 40.5009 101.314 40.6051C101.806 40.7045 102.265 40.8892 102.691 41.1591C103.122 41.429 103.475 41.8149 103.75 42.3168C104.024 42.8139 104.162 43.4602 104.162 44.2557V51.5H102.088V50.0085H102.002C101.865 50.2831 101.659 50.553 101.385 50.8182C101.11 51.0833 100.757 51.3035 100.326 51.4787C99.8955 51.6539 99.3794 51.7415 98.7781 51.7415ZM99.2397 50.0369C99.8268 50.0369 100.329 49.9209 100.745 49.6889C101.167 49.4569 101.486 49.1539 101.704 48.7798C101.927 48.401 102.038 47.9962 102.038 47.5653V46.1591C101.962 46.2348 101.815 46.3059 101.598 46.3722C101.385 46.4337 101.141 46.4882 100.866 46.5355C100.592 46.5781 100.324 46.6184 100.064 46.6562C99.8031 46.6894 99.5853 46.7178 99.4102 46.7415C98.9982 46.7936 98.6218 46.8812 98.2809 47.0043C97.9447 47.1274 97.6748 47.3049 97.4712 47.5369C97.2724 47.7642 97.1729 48.0672 97.1729 48.446C97.1729 48.9716 97.3671 49.3693 97.7553 49.6392C98.1436 49.9044 98.6384 50.0369 99.2397 50.0369ZM106.99 51.5V40.5909H109.043V42.3239H109.156C109.355 41.7367 109.705 41.2751 110.207 40.9389C110.714 40.598 111.287 40.4276 111.926 40.4276C112.059 40.4276 112.215 40.4323 112.395 40.4418C112.58 40.4512 112.724 40.4631 112.828 40.4773V42.5085C112.743 42.4848 112.591 42.4588 112.374 42.4304C112.156 42.3973 111.938 42.3807 111.72 42.3807C111.218 42.3807 110.771 42.4872 110.378 42.7003C109.99 42.9086 109.682 43.1998 109.455 43.5739C109.227 43.9432 109.114 44.3646 109.114 44.8381V51.5H106.99ZM120.403 40.5909V42.2955H114.444V40.5909H120.403ZM116.042 37.9773H118.165V48.2969C118.165 48.7088 118.227 49.0189 118.35 49.2273C118.473 49.4309 118.632 49.5705 118.826 49.6463C119.025 49.7173 119.24 49.7528 119.472 49.7528C119.643 49.7528 119.792 49.741 119.92 49.7173C120.048 49.6937 120.147 49.6747 120.218 49.6605L120.602 51.4148C120.478 51.4621 120.303 51.5095 120.076 51.5568C119.849 51.6089 119.565 51.6373 119.224 51.642C118.665 51.6515 118.144 51.5521 117.661 51.3438C117.178 51.1354 116.788 50.8134 116.489 50.3778C116.191 49.9422 116.042 49.3954 116.042 48.7372V37.9773Z" fill="white"/>
</g>
</g>
<rect x="2" y="2" width="157" height="85" stroke="#626CCE" stroke-width="4" stroke-linecap="round" stroke-linejoin="round" stroke-dasharray="16 16"/>
<g clip-path="url(#clip1_5187_47062)">
<path fill-rule="evenodd" clip-rule="evenodd" d="M153.511 85.1713L161.655 93.3072L155.997 98.9632L172.943 98.9373L172.969 81.9972L167.287 87.6812L159.137 79.5452L156.309 76.7153L161.997 71.0312H145.025V87.9993L150.685 82.3453L153.511 85.1713Z" fill="white"/>
<path fill-rule="evenodd" clip-rule="evenodd" d="M155.631 84.4653L164.485 93.3132L160.829 96.9692L170.941 96.9373L170.969 86.8293L167.285 90.5112L158.429 81.6673L153.481 76.7173L157.169 73.0312H147.023V83.1733L150.683 79.5173L155.631 84.4653Z" fill="black"/>
</g>
<defs>
<filter id="filter0_d_5187_47062" x="-25.9603" y="-13.0579" width="212.921" height="140.921" filterUnits="userSpaceOnUse" color-interpolation-filters="sRGB">
<feFlood flood-opacity="0" result="BackgroundImageFix"/>
<feColorMatrix in="SourceAlpha" type="matrix" values="0 0 0 0 0 0 0 0 0 0 0 0 0 0 0 0 0 0 127 0" result="hardAlpha"/>
<feOffset dy="12.9024"/>
<feGaussianBlur stdDeviation="21.9802"/>
<feComposite in2="hardAlpha" operator="out"/>
<feColorMatrix type="matrix" values="0 0 0 0 0 0 0 0 0 0 0 0 0 0 0 0 0 0 0.2 0"/>
<feBlend mode="normal" in2="BackgroundImageFix" result="effect1_dropShadow_5187_47062"/>
<feBlend mode="normal" in="SourceGraphic" in2="effect1_dropShadow_5187_47062" result="shape"/>
</filter>
<linearGradient id="paint0_linear_5187_47062" x1="26.3333" y1="24.7722" x2="63.3185" y2="90.3487" gradientUnits="userSpaceOnUse">
<stop stop-color="#3826A6"/>
<stop offset="1" stop-color="#A11DB1"/>
</linearGradient>
<clipPath id="clip0_5187_47062">
<rect x="2" y="2" width="157" height="85" fill="white"/>
</clipPath>
<clipPath id="clip1_5187_47062">
<rect width="28" height="28" fill="white" transform="matrix(-1 0 0 1 173 71)"/>
</clipPath>
</defs>
</svg>
