<svg width="24" height="25" viewBox="0 0 24 25" fill="none" xmlns="http://www.w3.org/2000/svg">
<rect width="24" height="24.8571" rx="3" fill="url(#paint0_linear_235_93)"/>
<path fillRule="evenodd" clipRule="evenodd" d="M2.40292 16.7939L2.54498 16.4626L4.3849 12.1713L4.38241 12.1664L2.41981 8.302L2.25531 7.97813L2.61157 7.88294L6.9175 6.73214L8.94562 2.33104L9.09813 2L9.39917 2.21201L13.4744 5.08202L18.2786 3.79291L18.6789 3.68551L18.6619 4.09167L18.4585 8.96397L22.2448 11.7316L22.5517 11.956L22.2585 12.1973L18.6228 15.1896L18.6228 15.1914L18.6147 15.198L18.4661 20.0642L18.4553 20.4164L18.1028 20.3466L13.4232 19.4205L9.8792 22.1814L9.58577 22.41L9.41877 22.0812L7.24667 17.8048L7.24326 17.7987L2.76178 16.8684L2.40292 16.7939ZM3.24642 16.3614L4.74176 12.8739L6.89829 17.1195L3.24642 16.3614ZM7.65613 17.2768L7.66777 17.2997L13.2648 18.7617L18.0082 14.9181L17.8506 9.26118L17.8392 9.25287L17.8408 9.21408L13.3445 5.73096L7.3508 7.23507L5.05459 12.1555L7.65613 17.2768ZM9.79498 21.4876L8.02801 18.009L12.6954 19.2281L9.79498 21.4876ZM17.8704 19.6943L14.0089 18.9301L17.9923 15.7023L17.8704 19.6943ZM21.575 11.9836L18.6016 14.4308L18.4702 9.7141L21.575 11.9836ZM18.0387 4.47353L17.8715 8.48007L14.0731 5.53762L18.0387 4.47353ZM9.34606 2.90661L12.711 5.2764L7.67122 6.54113L9.34606 2.90661ZM3.12753 8.3611L6.59003 7.43573L4.70703 11.4708L3.12753 8.3611ZM21.9442 10.7197L19.0662 5.05351L18.8946 5.13712L21.7727 10.8033L21.9442 10.7197ZM10.3102 2.32723L17.0559 3.67006L17.0177 3.85399L10.2721 2.51116L10.3102 2.32723ZM3.42355 6.95705L7.91994 2.88856L7.78996 2.75069L3.29354 6.81918L3.42355 6.95705ZM2.59369 9.23414L2.44154 15.3599L2.25 15.3553L2.40214 9.2296L2.59369 9.23414ZM8.67117 21.4068L3.54147 17.452L3.42298 17.5995L8.5527 21.5542L8.67117 21.4068ZM17.1663 20.8845L11.0915 22.2667L11.0482 22.0839L17.123 20.7016L17.1663 20.8845ZM18.9185 19.2756L21.9219 13.2159L21.7496 13.1339L18.7461 19.1936L18.9185 19.2756Z" fill="white"/>
<defs>
<linearGradient id="paint0_linear_235_93" x1="0.160608" y1="17.9764" x2="21.9662" y2="7.13375" gradientUnits="userSpaceOnUse">
<stop stopColor="#D24F39"/>
<stop offset="1" stopColor="#791EEC"/>
</linearGradient>
</defs>
</svg>
