		<svg
			width="16"
			height="24"
			viewBox="0 0 16 24"
			fill="none"
			xmlns="http://www.w3.org/2000/svg"
		>
			<path
				d="M3.28823 12.9235C2.57676 12.9235 2 13.5003 2 14.2118V14.2118C2 14.9232 2.57676 15.5 3.28823 15.5H12.3059C13.0174 15.5 13.5941 14.9232 13.5941 14.2118V14.2118C13.5941 13.5003 13.0174 12.9235 12.3059 12.9235H3.28823ZM3.28823 6.74C2.57676 6.74 2 7.31676 2 8.02824V8.02824C2 8.73971 2.57676 9.31647 3.28824 9.31647H12.3059C13.0174 9.31647 13.5941 8.73971 13.5941 8.02824V8.02824C13.5941 7.31676 13.0174 6.74 12.3059 6.74H3.28823Z"
				fill="#F2C94C"
			/>
		</svg>
