<svg width="10" height="10" viewBox="0 0 10 10" xmlns="http://www.w3.org/2000/svg" fill="#B87B1E">
	<path d="M4.44395 7.92772V2.07242C4.44395 1.51654 4.20924 1.29419 3.6163 1.29419H2.12159C1.52865 1.29419 1.29395 1.51654 1.29395 2.07242V7.92772C1.29395 8.4836 1.52865 8.70595 2.12159 8.70595H3.6163C4.20924 8.70595 4.44395 8.4836 4.44395 7.92772Z"/>
	<path d="M8.70566 7.92772V2.07242C8.70566 1.51654 8.47096 1.29419 7.87802 1.29419H6.38331C5.79449 1.29419 5.55566 1.51654 5.55566 2.07242V7.92772C5.55566 8.4836 5.79037 8.70595 6.38331 8.70595H7.87802C8.47096 8.70595 8.70566 8.4836 8.70566 7.92772Z"/>
</svg>
