<svg width="10" height="11" viewBox="0 0 10 11" fill="none" xmlns="http://www.w3.org/2000/svg">
	<path d="M8.14048 3.53982C8.26401 3.73335 8.19813 3.99276 8.00048 4.11217L7.75754 4.25629L2.3593 7.49276C2.16166 7.61217 1.90224 7.54629 1.78695 7.34452C1.37519 6.62805 1.18989 5.75511 1.35048 4.84099C1.62224 3.28864 2.89871 2.05335 4.4593 1.83099C6.00342 1.61276 7.3993 2.35394 8.14048 3.53982Z" fill="#307D50"/>
	<path d="M8.65933 6.08872C8.37933 7.83872 6.83109 9.17695 5.05639 9.20577C4.27403 9.21813 3.54933 8.99166 2.94815 8.58401C2.69286 8.41519 2.70109 8.03636 2.96462 7.87989L8.07462 4.87813C8.34227 4.72166 8.67168 4.90283 8.69639 5.21166C8.71698 5.49989 8.70462 5.79225 8.65933 6.08872Z" fill="#307D50"/>
</svg>
