<svg width="10" height="10" viewBox="0 0 10 10" fill="none" xmlns="http://www.w3.org/2000/svg">
	<path d="M7.26027 4.01184L2.36439 6.96419C2.07615 7.13713 1.70557 6.93125 1.70557 6.5936V3.29948C1.70557 1.86242 3.25792 0.964776 4.50557 1.68125L6.39557 2.76831L7.25615 3.26242C7.54027 3.43125 7.54439 3.84301 7.26027 4.01184Z" fill="#307D50"/>
	<path d="M7.50763 6.42462L5.83998 7.38815L4.17645 8.34756C3.57939 8.68932 2.9041 8.61932 2.4141 8.27344C2.17527 8.10874 2.2041 7.74227 2.45527 7.59403L7.6888 4.45638C7.93586 4.30815 8.26116 4.44815 8.30645 4.73227C8.40939 5.3705 8.14586 6.05815 7.50763 6.42462Z" fill="#307D50"/>
</svg>
