
<svg width="10" height="10" viewBox="0 0 10 10" fill="none" xmlns="http://www.w3.org/2000/svg" stroke="currentColor">
	<path d="M2.0835 4.16683H2.91683C3.75016 4.16683 4.16683 3.75016 4.16683 2.91683V2.0835C4.16683 1.25016 3.75016 0.833496 2.91683 0.833496H2.0835C1.25016 0.833496 0.833496 1.25016 0.833496 2.0835V2.91683C0.833496 3.75016 1.25016 4.16683 2.0835 4.16683Z" strokeLinecap="round" strokeLinejoin="round"/>
	<path d="M7.0835 4.16683H7.91683C8.75016 4.16683 9.16683 3.75016 9.16683 2.91683V2.0835C9.16683 1.25016 8.75016 0.833496 7.91683 0.833496H7.0835C6.25016 0.833496 5.8335 1.25016 5.8335 2.0835V2.91683C5.8335 3.75016 6.25016 4.16683 7.0835 4.16683Z" strokeLinecap="round" strokeLinejoin="round"/>
	<path d="M7.0835 9.16683H7.91683C8.75016 9.16683 9.16683 8.75016 9.16683 7.91683V7.0835C9.16683 6.25016 8.75016 5.8335 7.91683 5.8335H7.0835C6.25016 5.8335 5.8335 6.25016 5.8335 7.0835V7.91683C5.8335 8.75016 6.25016 9.16683 7.0835 9.16683Z" strokeLinecap="round" strokeLinejoin="round"/>
	<path d="M2.0835 9.16683H2.91683C3.75016 9.16683 4.16683 8.75016 4.16683 7.91683V7.0835C4.16683 6.25016 3.75016 5.8335 2.91683 5.8335H2.0835C1.25016 5.8335 0.833496 6.25016 0.833496 7.0835V7.91683C0.833496 8.75016 1.25016 9.16683 2.0835 9.16683Z" strokeLinecap="round" strokeLinejoin="round"/>
</svg>
